<?xml version="1.0" encoding="UTF-8" standalone="no"?>
<!DOCTYPE svg PUBLIC "-//W3C//DTD SVG 1.1//EN"
 "http://www.w3.org/Graphics/SVG/1.1/DTD/svg11.dtd">
<!-- Generated by graphviz version 9.0.0 (20230911.1827)
 -->
<!-- Title: phylogenetic_tree Pages: 1 -->
<svg width="1416pt" height="377pt"
 viewBox="0.00 0.00 1415.50 376.75" xmlns="http://www.w3.org/2000/svg" xmlns:xlink="http://www.w3.org/1999/xlink">
<g id="graph0" class="graph" transform="scale(1 1) rotate(0) translate(4 372.75)">
<title>phylogenetic_tree</title>
<polygon fill="white" stroke="none" points="-4,4 -4,-372.75 1411.5,-372.75 1411.5,4 -4,4"/>
<text text-anchor="middle" x="703.75" y="-6.45" font-family="Times New Roman,serif" font-size="14.00">Phylogenetic Tree from: ProcessedMatrixLevenshtein.csv</text>
<!-- 0 -->
<g id="node1" class="node">
<title>0</title>
<polygon fill="#87ceeb" stroke="none" points="303,-358.25 0,-358.25 0,-308.25 303,-308.25 303,-358.25"/>
<polygon fill="lightcoral" stroke="none" points="8,-312.25 8,-354.25 50,-354.25 50,-312.25 8,-312.25"/>
<polygon fill="none" stroke="#87ceeb" points="8,-312.25 8,-354.25 50,-354.25 50,-312.25 8,-312.25"/>
<text text-anchor="start" x="10.62" y="-327.82" font-family="Times New Roman,serif" font-size="14.00" fill="#000000">Cube1</text>
<polygon fill="aqua" stroke="none" points="70,-333.25 70,-354.25 157,-354.25 157,-333.25 70,-333.25"/>
<polygon fill="none" stroke="#87ceeb" points="70,-333.25 70,-354.25 157,-354.25 157,-333.25 70,-333.25"/>
<text text-anchor="start" x="78.25" y="-337.95" font-family="Times New Roman,serif" font-size="14.00" fill="#000000">GameObject</text>
<polygon fill="aquamarine" stroke="none" points="157,-333.25 157,-354.25 230,-354.25 230,-333.25 157,-333.25"/>
<polygon fill="none" stroke="#87ceeb" points="157,-333.25 157,-354.25 230,-354.25 230,-333.25 157,-333.25"/>
<text text-anchor="start" x="163.88" y="-337.95" font-family="Times New Roman,serif" font-size="14.00" fill="#000000">Transform</text>
<polygon fill="bisque" stroke="none" points="230,-333.25 230,-354.25 295,-354.25 295,-333.25 230,-333.25"/>
<polygon fill="none" stroke="#87ceeb" points="230,-333.25 230,-354.25 295,-354.25 295,-333.25 230,-333.25"/>
<text text-anchor="start" x="232.88" y="-337.95" font-family="Times New Roman,serif" font-size="14.00" fill="#000000">MeshFilter</text>
<polygon fill="darkorchid" stroke="none" points="70,-312.25 70,-333.25 157,-333.25 157,-312.25 70,-312.25"/>
<polygon fill="none" stroke="#87ceeb" points="70,-312.25 70,-333.25 157,-333.25 157,-312.25 70,-312.25"/>
<text text-anchor="start" x="72.62" y="-316.95" font-family="Times New Roman,serif" font-size="14.00" fill="#000000">MeshRenderer</text>
<polygon fill="gray" stroke="none" points="157,-312.25 157,-333.25 230,-333.25 230,-312.25 157,-312.25"/>
<polygon fill="none" stroke="#87ceeb" points="157,-312.25 157,-333.25 230,-333.25 230,-312.25 157,-312.25"/>
<text text-anchor="start" x="159.75" y="-316.95" font-family="Times New Roman,serif" font-size="14.00" fill="#000000">BoxCollider</text>
</g>
<!-- 5 -->
<g id="node6" class="node">
<title>5</title>
<g id="a_node6"><a xlink:title="0.07692308">
<polygon fill="#006400" stroke="#006400" points="478.5,-261.75 455.75,-238 478.5,-214.25 501.25,-238 478.5,-261.75"/>
<text text-anchor="start" x="475.12" y="-232.57" font-family="Times New Roman,serif" font-size="14.00" fill="#006400">0</text>
</a>
</g>
</g>
<!-- 0&#45;&#45;5 -->
<g id="edge1" class="edge">
<title>0&#45;&#45;5</title>
<path fill="none" stroke="#000000" d="M235.29,-308.36C305.94,-288.21 402.88,-260.56 450.2,-247.07"/>
<polygon fill="#000000" stroke="#000000" points="451,-250.48 459.66,-244.37 449.08,-243.75 451,-250.48"/>
</g>
<!-- 1 -->
<g id="node2" class="node">
<title>1</title>
<polygon fill="#87ceeb" stroke="none" points="635.5,-358.25 321.5,-358.25 321.5,-308.25 635.5,-308.25 635.5,-358.25"/>
<polygon fill="lightcoral" stroke="none" points="329.5,-312.25 329.5,-354.25 382.5,-354.25 382.5,-312.25 329.5,-312.25"/>
<polygon fill="none" stroke="#87ceeb" points="329.5,-312.25 329.5,-354.25 382.5,-354.25 382.5,-312.25 329.5,-312.25"/>
<text text-anchor="start" x="332.38" y="-327.82" font-family="Times New Roman,serif" font-size="14.00" fill="#000000">Hammer</text>
<polygon fill="aqua" stroke="none" points="402.5,-333.25 402.5,-354.25 489.5,-354.25 489.5,-333.25 402.5,-333.25"/>
<polygon fill="none" stroke="#87ceeb" points="402.5,-333.25 402.5,-354.25 489.5,-354.25 489.5,-333.25 402.5,-333.25"/>
<text text-anchor="start" x="410.75" y="-337.95" font-family="Times New Roman,serif" font-size="14.00" fill="#000000">GameObject</text>
<polygon fill="aquamarine" stroke="none" points="489.5,-333.25 489.5,-354.25 562.5,-354.25 562.5,-333.25 489.5,-333.25"/>
<polygon fill="none" stroke="#87ceeb" points="489.5,-333.25 489.5,-354.25 562.5,-354.25 562.5,-333.25 489.5,-333.25"/>
<text text-anchor="start" x="496.38" y="-337.95" font-family="Times New Roman,serif" font-size="14.00" fill="#000000">Transform</text>
<polygon fill="bisque" stroke="none" points="562.5,-333.25 562.5,-354.25 627.5,-354.25 627.5,-333.25 562.5,-333.25"/>
<polygon fill="none" stroke="#87ceeb" points="562.5,-333.25 562.5,-354.25 627.5,-354.25 627.5,-333.25 562.5,-333.25"/>
<text text-anchor="start" x="565.38" y="-337.95" font-family="Times New Roman,serif" font-size="14.00" fill="#000000">MeshFilter</text>
<polygon fill="darkorchid" stroke="none" points="402.5,-312.25 402.5,-333.25 489.5,-333.25 489.5,-312.25 402.5,-312.25"/>
<polygon fill="none" stroke="#87ceeb" points="402.5,-312.25 402.5,-333.25 489.5,-333.25 489.5,-312.25 402.5,-312.25"/>
<text text-anchor="start" x="405.12" y="-316.95" font-family="Times New Roman,serif" font-size="14.00" fill="#000000">MeshRenderer</text>
<polygon fill="gray" stroke="none" points="489.5,-312.25 489.5,-333.25 562.5,-333.25 562.5,-312.25 489.5,-312.25"/>
<polygon fill="none" stroke="#87ceeb" points="489.5,-312.25 489.5,-333.25 562.5,-333.25 562.5,-312.25 489.5,-312.25"/>
<text text-anchor="start" x="492.25" y="-316.95" font-family="Times New Roman,serif" font-size="14.00" fill="#000000">BoxCollider</text>
<polygon fill="hotpink" stroke="none" points="562.5,-312.25 562.5,-333.25 627.5,-333.25 627.5,-312.25 562.5,-312.25"/>
<polygon fill="none" stroke="#87ceeb" points="562.5,-312.25 562.5,-333.25 627.5,-333.25 627.5,-312.25 562.5,-312.25"/>
<text text-anchor="start" x="565.38" y="-316.95" font-family="Times New Roman,serif" font-size="14.00" fill="#000000">Rigidbody</text>
</g>
<!-- 1&#45;&#45;5 -->
<g id="edge2" class="edge">
<title>1&#45;&#45;5</title>
<path fill="none" stroke="#000000" d="M478.5,-308.72C478.5,-298.04 478.5,-285.19 478.5,-273.45"/>
<polygon fill="#000000" stroke="#000000" points="482,-273.71 478.5,-263.71 475,-273.71 482,-273.71"/>
</g>
<!-- 2 -->
<g id="node3" class="node">
<title>2</title>
<polygon fill="#87ceeb" stroke="none" points="1057,-368.75 654,-368.75 654,-297.75 1057,-297.75 1057,-368.75"/>
<polygon fill="lightcoral" stroke="none" points="662,-301.75 662,-364.75 781,-364.75 781,-301.75 662,-301.75"/>
<polygon fill="none" stroke="#87ceeb" points="662,-301.75 662,-364.75 781,-364.75 781,-301.75 662,-301.75"/>
<text text-anchor="start" x="664.88" y="-327.82" font-family="Times New Roman,serif" font-size="14.00" fill="#000000">LightSourceCandles</text>
<polygon fill="aqua" stroke="none" points="801,-343.75 801,-364.75 888,-364.75 888,-343.75 801,-343.75"/>
<polygon fill="none" stroke="#87ceeb" points="801,-343.75 801,-364.75 888,-364.75 888,-343.75 801,-343.75"/>
<text text-anchor="start" x="809.25" y="-348.45" font-family="Times New Roman,serif" font-size="14.00" fill="#000000">GameObject</text>
<polygon fill="aquamarine" stroke="none" points="888,-343.75 888,-364.75 984,-364.75 984,-343.75 888,-343.75"/>
<polygon fill="none" stroke="#87ceeb" points="888,-343.75 888,-364.75 984,-364.75 984,-343.75 888,-343.75"/>
<text text-anchor="start" x="906.38" y="-348.45" font-family="Times New Roman,serif" font-size="14.00" fill="#000000">Transform</text>
<polygon fill="bisque" stroke="none" points="984,-343.75 984,-364.75 1049,-364.75 1049,-343.75 984,-343.75"/>
<polygon fill="none" stroke="#87ceeb" points="984,-343.75 984,-364.75 1049,-364.75 1049,-343.75 984,-343.75"/>
<text text-anchor="start" x="986.88" y="-348.45" font-family="Times New Roman,serif" font-size="14.00" fill="#000000">MeshFilter</text>
<polygon fill="darkorchid" stroke="none" points="801,-322.75 801,-343.75 888,-343.75 888,-322.75 801,-322.75"/>
<polygon fill="none" stroke="#87ceeb" points="801,-322.75 801,-343.75 888,-343.75 888,-322.75 801,-322.75"/>
<text text-anchor="start" x="803.62" y="-327.45" font-family="Times New Roman,serif" font-size="14.00" fill="#000000">MeshRenderer</text>
<polygon fill="gray" stroke="none" points="888,-322.75 888,-343.75 984,-343.75 984,-322.75 888,-322.75"/>
<polygon fill="none" stroke="#87ceeb" points="888,-322.75 888,-343.75 984,-343.75 984,-322.75 888,-322.75"/>
<text text-anchor="start" x="902.25" y="-327.45" font-family="Times New Roman,serif" font-size="14.00" fill="#000000">BoxCollider</text>
<polygon fill="hotpink" stroke="none" points="984,-322.75 984,-343.75 1049,-343.75 1049,-322.75 984,-322.75"/>
<polygon fill="none" stroke="#87ceeb" points="984,-322.75 984,-343.75 1049,-343.75 1049,-322.75 984,-322.75"/>
<text text-anchor="start" x="986.88" y="-327.45" font-family="Times New Roman,serif" font-size="14.00" fill="#000000">Rigidbody</text>
<polygon fill="cadetblue" stroke="none" points="801,-301.75 801,-322.75 888,-322.75 888,-301.75 801,-301.75"/>
<polygon fill="none" stroke="#87ceeb" points="801,-301.75 801,-322.75 888,-322.75 888,-301.75 801,-301.75"/>
<text text-anchor="start" x="830.25" y="-306.45" font-family="Times New Roman,serif" font-size="14.00" fill="#000000">Light</text>
<polygon fill="chocolate" stroke="none" points="888,-301.75 888,-322.75 984,-322.75 984,-301.75 888,-301.75"/>
<polygon fill="none" stroke="#87ceeb" points="888,-301.75 888,-322.75 984,-322.75 984,-301.75 888,-301.75"/>
<text text-anchor="start" x="891" y="-306.45" font-family="Times New Roman,serif" font-size="14.00" fill="#000000">MonoBehaviour</text>
</g>
<!-- 6 -->
<g id="node7" class="node">
<title>6</title>
<g id="a_node7"><a xlink:title="0.15384616">
<polygon fill="#006400" stroke="#006400" points="855.5,-261.75 832.75,-238 855.5,-214.25 878.25,-238 855.5,-261.75"/>
<text text-anchor="start" x="852.12" y="-232.57" font-family="Times New Roman,serif" font-size="14.00" fill="#006400">1</text>
</a>
</g>
</g>
<!-- 2&#45;&#45;6 -->
<g id="edge3" class="edge">
<title>2&#45;&#45;6</title>
<path fill="none" stroke="#000000" d="M855.5,-297.79C855.5,-289.94 855.5,-281.59 855.5,-273.72"/>
<polygon fill="#000000" stroke="#000000" points="859,-273.79 855.5,-263.79 852,-273.79 859,-273.79"/>
</g>
<!-- 3 -->
<g id="node4" class="node">
<title>3</title>
<polygon fill="#87ceeb" stroke="none" points="1115.5,-178.25 707.5,-178.25 707.5,-107.25 1115.5,-107.25 1115.5,-178.25"/>
<polygon fill="lightcoral" stroke="none" points="715.5,-111.25 715.5,-174.25 802.5,-174.25 802.5,-111.25 715.5,-111.25"/>
<polygon fill="none" stroke="#87ceeb" points="715.5,-111.25 715.5,-174.25 802.5,-174.25 802.5,-111.25 715.5,-111.25"/>
<text text-anchor="start" x="718.5" y="-137.32" font-family="Times New Roman,serif" font-size="14.00" fill="#000000">CameraHolder</text>
<polygon fill="aqua" stroke="none" points="822.5,-153.25 822.5,-174.25 913.5,-174.25 913.5,-153.25 822.5,-153.25"/>
<polygon fill="none" stroke="#87ceeb" points="822.5,-153.25 822.5,-174.25 913.5,-174.25 913.5,-153.25 822.5,-153.25"/>
<text text-anchor="start" x="832.75" y="-157.95" font-family="Times New Roman,serif" font-size="14.00" fill="#000000">GameObject</text>
<polygon fill="aquamarine" stroke="none" points="913.5,-153.25 913.5,-174.25 1011.5,-174.25 1011.5,-153.25 913.5,-153.25"/>
<polygon fill="none" stroke="#87ceeb" points="913.5,-153.25 913.5,-174.25 1011.5,-174.25 1011.5,-153.25 913.5,-153.25"/>
<text text-anchor="start" x="932.88" y="-157.95" font-family="Times New Roman,serif" font-size="14.00" fill="#000000">Transform</text>
<polygon fill="chocolate" stroke="none" points="1011.5,-153.25 1011.5,-174.25 1107.5,-174.25 1107.5,-153.25 1011.5,-153.25"/>
<polygon fill="none" stroke="#87ceeb" points="1011.5,-153.25 1011.5,-174.25 1107.5,-174.25 1107.5,-153.25 1011.5,-153.25"/>
<text text-anchor="start" x="1014.5" y="-157.95" font-family="Times New Roman,serif" font-size="14.00" fill="#000000">MonoBehaviour</text>
<polygon fill="coral" stroke="none" points="822.5,-132.25 822.5,-153.25 913.5,-153.25 913.5,-132.25 822.5,-132.25"/>
<polygon fill="none" stroke="#87ceeb" points="822.5,-132.25 822.5,-153.25 913.5,-153.25 913.5,-132.25 822.5,-132.25"/>
<text text-anchor="start" x="825.25" y="-136.95" font-family="Times New Roman,serif" font-size="14.00" fill="#000000">RectTransform</text>
<polygon fill="cornflowerblue" stroke="none" points="913.5,-132.25 913.5,-153.25 1011.5,-153.25 1011.5,-132.25 913.5,-132.25"/>
<polygon fill="none" stroke="#87ceeb" points="913.5,-132.25 913.5,-153.25 1011.5,-153.25 1011.5,-132.25 913.5,-132.25"/>
<text text-anchor="start" x="916.38" y="-136.95" font-family="Times New Roman,serif" font-size="14.00" fill="#000000">CanvasRenderer</text>
<polygon fill="crimson" stroke="none" points="1011.5,-132.25 1011.5,-153.25 1107.5,-153.25 1107.5,-132.25 1011.5,-132.25"/>
<polygon fill="none" stroke="#87ceeb" points="1011.5,-132.25 1011.5,-153.25 1107.5,-153.25 1107.5,-132.25 1011.5,-132.25"/>
<text text-anchor="start" x="1038.88" y="-136.95" font-family="Times New Roman,serif" font-size="14.00" fill="#000000">Canvas</text>
<polygon fill="greenyellow" stroke="none" points="822.5,-111.25 822.5,-132.25 913.5,-132.25 913.5,-111.25 822.5,-111.25"/>
<polygon fill="none" stroke="#87ceeb" points="822.5,-111.25 822.5,-132.25 913.5,-132.25 913.5,-111.25 822.5,-111.25"/>
<text text-anchor="start" x="846.62" y="-115.95" font-family="Times New Roman,serif" font-size="14.00" fill="#000000">Camera</text>
<polygon fill="gold" stroke="none" points="913.5,-111.25 913.5,-132.25 1011.5,-132.25 1011.5,-111.25 913.5,-111.25"/>
<polygon fill="none" stroke="#87ceeb" points="913.5,-111.25 913.5,-132.25 1011.5,-132.25 1011.5,-111.25 913.5,-111.25"/>
<text text-anchor="start" x="923.12" y="-115.95" font-family="Times New Roman,serif" font-size="14.00" fill="#000000">AudioListener</text>
</g>
<!-- 73 -->
<g id="node9" class="node">
<title>73</title>
<g id="a_node9"><a xlink:title="0.7115385">
<polygon fill="#8b0000" stroke="#8b0000" points="788.5,-71.25 765.75,-47.5 788.5,-23.75 811.25,-47.5 788.5,-71.25"/>
<text text-anchor="start" x="785.12" y="-42.08" font-family="Times New Roman,serif" font-size="14.00" fill="#8b0000">3</text>
</a>
</g>
</g>
<!-- 3&#45;&#45;73 -->
<g id="edge8" class="edge">
<title>3&#45;&#45;73</title>
<path fill="none" stroke="#000000" d="M866.05,-107.29C846.89,-92.77 825.51,-76.55 810.05,-64.84"/>
<polygon fill="#000000" stroke="#000000" points="812.56,-62.35 802.47,-59.09 808.33,-67.92 812.56,-62.35"/>
</g>
<!-- 4 -->
<g id="node5" class="node">
<title>4</title>
<polygon fill="#87ceeb" stroke="none" points="1407.5,-368.75 1075.5,-368.75 1075.5,-297.75 1407.5,-297.75 1407.5,-368.75"/>
<polygon fill="lightcoral" stroke="none" points="1083.5,-301.75 1083.5,-364.75 1123.5,-364.75 1123.5,-301.75 1083.5,-301.75"/>
<polygon fill="none" stroke="#87ceeb" points="1083.5,-301.75 1083.5,-364.75 1123.5,-364.75 1123.5,-301.75 1083.5,-301.75"/>
<text text-anchor="start" x="1086.25" y="-327.82" font-family="Times New Roman,serif" font-size="14.00" fill="#000000">Player</text>
<polygon fill="aqua" stroke="none" points="1143.5,-343.75 1143.5,-364.75 1238.5,-364.75 1238.5,-343.75 1143.5,-343.75"/>
<polygon fill="none" stroke="#87ceeb" points="1143.5,-343.75 1143.5,-364.75 1238.5,-364.75 1238.5,-343.75 1143.5,-343.75"/>
<text text-anchor="start" x="1155.75" y="-348.45" font-family="Times New Roman,serif" font-size="14.00" fill="#000000">GameObject</text>
<polygon fill="aquamarine" stroke="none" points="1238.5,-343.75 1238.5,-364.75 1303.5,-364.75 1303.5,-343.75 1238.5,-343.75"/>
<polygon fill="none" stroke="#87ceeb" points="1238.5,-343.75 1238.5,-364.75 1303.5,-364.75 1303.5,-343.75 1238.5,-343.75"/>
<text text-anchor="start" x="1241.38" y="-348.45" font-family="Times New Roman,serif" font-size="14.00" fill="#000000">Transform</text>
<polygon fill="bisque" stroke="none" points="1303.5,-343.75 1303.5,-364.75 1399.5,-364.75 1399.5,-343.75 1303.5,-343.75"/>
<polygon fill="none" stroke="#87ceeb" points="1303.5,-343.75 1303.5,-364.75 1399.5,-364.75 1399.5,-343.75 1303.5,-343.75"/>
<text text-anchor="start" x="1321.88" y="-348.45" font-family="Times New Roman,serif" font-size="14.00" fill="#000000">MeshFilter</text>
<polygon fill="darkorchid" stroke="none" points="1143.5,-322.75 1143.5,-343.75 1238.5,-343.75 1238.5,-322.75 1143.5,-322.75"/>
<polygon fill="none" stroke="#87ceeb" points="1143.5,-322.75 1143.5,-343.75 1238.5,-343.75 1238.5,-322.75 1143.5,-322.75"/>
<text text-anchor="start" x="1150.12" y="-327.45" font-family="Times New Roman,serif" font-size="14.00" fill="#000000">MeshRenderer</text>
<polygon fill="hotpink" stroke="none" points="1238.5,-322.75 1238.5,-343.75 1303.5,-343.75 1303.5,-322.75 1238.5,-322.75"/>
<polygon fill="none" stroke="#87ceeb" points="1238.5,-322.75 1238.5,-343.75 1303.5,-343.75 1303.5,-322.75 1238.5,-322.75"/>
<text text-anchor="start" x="1241.38" y="-327.45" font-family="Times New Roman,serif" font-size="14.00" fill="#000000">Rigidbody</text>
<polygon fill="chocolate" stroke="none" points="1303.5,-322.75 1303.5,-343.75 1399.5,-343.75 1399.5,-322.75 1303.5,-322.75"/>
<polygon fill="none" stroke="#87ceeb" points="1303.5,-322.75 1303.5,-343.75 1399.5,-343.75 1399.5,-322.75 1303.5,-322.75"/>
<text text-anchor="start" x="1306.5" y="-327.45" font-family="Times New Roman,serif" font-size="14.00" fill="#000000">MonoBehaviour</text>
<polygon fill="orchid" stroke="none" points="1143.5,-301.75 1143.5,-322.75 1238.5,-322.75 1238.5,-301.75 1143.5,-301.75"/>
<polygon fill="none" stroke="#87ceeb" points="1143.5,-301.75 1143.5,-322.75 1238.5,-322.75 1238.5,-301.75 1143.5,-301.75"/>
<text text-anchor="start" x="1146.38" y="-306.45" font-family="Times New Roman,serif" font-size="14.00" fill="#000000">CapsuleCollider</text>
</g>
<!-- 4&#45;&#45;6 -->
<g id="edge4" class="edge">
<title>4&#45;&#45;6</title>
<path fill="none" stroke="#000000" d="M1098.86,-297.79C1020.4,-278.84 930,-257 884.65,-246.04"/>
<polygon fill="#000000" stroke="#000000" points="885.62,-242.68 875.08,-243.73 883.98,-249.48 885.62,-242.68"/>
</g>
<!-- 7 -->
<g id="node8" class="node">
<title>7</title>
<g id="a_node8"><a xlink:title="0.1923077">
<polygon fill="#006400" stroke="#006400" points="666.5,-166.5 643.75,-142.75 666.5,-119 689.25,-142.75 666.5,-166.5"/>
<text text-anchor="start" x="663.12" y="-137.32" font-family="Times New Roman,serif" font-size="14.00" fill="#006400">2</text>
</a>
</g>
</g>
<!-- 5&#45;&#45;7 -->
<g id="edge5" class="edge">
<title>5&#45;&#45;7</title>
<path fill="none" stroke="#000000" d="M493.57,-229.53C525.74,-213.57 601.47,-176.01 641.18,-156.31"/>
<polygon fill="#000000" stroke="#000000" points="642.6,-159.51 650.01,-151.93 639.49,-153.24 642.6,-159.51"/>
</g>
<!-- 6&#45;&#45;7 -->
<g id="edge6" class="edge">
<title>6&#45;&#45;7</title>
<path fill="none" stroke="#000000" d="M837.28,-233.1C806.64,-225.93 743.71,-208.55 698.5,-178.25 693.16,-174.67 688.07,-170.02 683.59,-165.31"/>
<polygon fill="#000000" stroke="#000000" points="686.49,-163.31 677.26,-158.11 681.23,-167.93 686.49,-163.31"/>
</g>
<!-- 7&#45;&#45;73 -->
<g id="edge7" class="edge">
<title>7&#45;&#45;73</title>
<path fill="none" stroke="#000000" d="M676.79,-129.23C682.76,-122.35 690.63,-113.89 698.5,-107.25 719.22,-89.77 745.41,-73.21 764.19,-62.15"/>
<polygon fill="#000000" stroke="#000000" points="765.82,-65.25 772.72,-57.22 762.32,-59.19 765.82,-65.25"/>
</g>
</g>
</svg>
