<?xml version="1.0" encoding="UTF-8" standalone="no"?>
<!DOCTYPE svg PUBLIC "-//W3C//DTD SVG 1.1//EN"
 "http://www.w3.org/Graphics/SVG/1.1/DTD/svg11.dtd">
<!-- Generated by graphviz version 7.0.3 (20221126.0506)
 -->
<!-- Title: phylogenetic_tree Pages: 1 -->
<svg width="1007pt" height="654pt"
 viewBox="0.00 0.00 1007.00 653.65" xmlns="http://www.w3.org/2000/svg" xmlns:xlink="http://www.w3.org/1999/xlink">
<g id="graph0" class="graph" transform="scale(1 1) rotate(0) translate(4 649.65)">
<title>phylogenetic_tree</title>
<polygon fill="white" stroke="none" points="-4,4 -4,-649.65 1003,-649.65 1003,4 -4,4"/>
<text text-anchor="middle" x="499.5" y="-7.8" font-family="Times New Roman,serif" font-size="14.00">Phylogenetic Tree from: Projects.csv</text>
<!-- Q46 -->
<g id="node1" class="node">
<title>Q46</title>
<polygon fill="#87ceeb" stroke="#87ceeb" points="470.97,-620.71 470.97,-635.38 452.66,-645.75 426.76,-645.75 408.45,-635.38 408.45,-620.71 426.76,-610.33 452.66,-610.33 470.97,-620.71"/>
<text text-anchor="start" x="427.21" y="-624.34" font-family="Times New Roman,serif" font-size="14.00" fill="#000000">Q46</text>
</g>
<!-- Q46_Q57 -->
<g id="node3" class="node">
<title>Q46_Q57</title>
<g id="a_node3"><a xlink:title="0.66790783">
<polygon fill="#006400" stroke="#006400" points="458.35,-567.41 435.35,-544.41 458.35,-521.41 481.35,-544.41 458.35,-567.41"/>
<text text-anchor="start" x="454.85" y="-540.71" font-family="Times New Roman,serif" font-size="14.00" fill="#006400">0</text>
</a>
</g>
</g>
<!-- Q46&#45;&#45;Q46_Q57 -->
<g id="edge1" class="edge">
<title>Q46&#45;&#45;Q46_Q57</title>
<path fill="none" stroke="#000000" d="M443.76,-609.89C446.04,-599.66 448.95,-586.61 451.57,-574.85"/>
<polygon fill="#000000" stroke="#000000" points="454.97,-575.68 453.73,-565.16 448.13,-574.16 454.97,-575.68"/>
</g>
<!-- Q57 -->
<g id="node2" class="node">
<title>Q57</title>
<polygon fill="#87ceeb" stroke="#87ceeb" points="541.83,-597.33 541.83,-612 523.52,-622.37 497.62,-622.37 479.31,-612 479.31,-597.33 497.62,-586.96 523.52,-586.96 541.83,-597.33"/>
<text text-anchor="start" x="498.07" y="-600.96" font-family="Times New Roman,serif" font-size="14.00" fill="#000000">Q57</text>
</g>
<!-- Q57&#45;&#45;Q46_Q57 -->
<g id="edge2" class="edge">
<title>Q57&#45;&#45;Q46_Q57</title>
<path fill="none" stroke="#000000" d="M495.75,-587.56C489.81,-580.71 482.91,-572.75 476.66,-565.54"/>
<polygon fill="#000000" stroke="#000000" points="479.41,-563.37 470.22,-558.1 474.12,-567.95 479.41,-563.37"/>
</g>
<!-- Q46_Q57_Q53_Q54_Q59_Q62_Q66_Q56_Q64_Q70_Q67_Q68 -->
<g id="node28" class="node">
<title>Q46_Q57_Q53_Q54_Q59_Q62_Q66_Q56_Q64_Q70_Q67_Q68</title>
<g id="a_node28"><a xlink:title="0.8599259">
<polygon fill="#006400" stroke="#006400" points="441.79,-481.09 411.79,-458.09 441.79,-435.09 471.79,-458.09 441.79,-481.09"/>
<text text-anchor="start" x="434.79" y="-454.39" font-family="Times New Roman,serif" font-size="14.00" fill="#006400">12</text>
</a>
</g>
</g>
<!-- Q46_Q57&#45;&#45;Q46_Q57_Q53_Q54_Q59_Q62_Q66_Q56_Q64_Q70_Q67_Q68 -->
<g id="edge25" class="edge">
<title>Q46_Q57&#45;&#45;Q46_Q57_Q53_Q54_Q59_Q62_Q66_Q56_Q64_Q70_Q67_Q68</title>
<path fill="none" stroke="#000000" stroke-dasharray="5,2" d="M454.59,-524.82C452.6,-514.45 450.11,-501.46 447.85,-489.71"/>
<polygon fill="#000000" stroke="#000000" points="451.31,-489.15 445.99,-479.99 444.44,-490.47 451.31,-489.15"/>
</g>
<!-- Q53 -->
<g id="node4" class="node">
<title>Q53</title>
<polygon fill="#87ceeb" stroke="#87ceeb" points="281.85,-557.08 281.85,-571.74 263.54,-582.12 237.64,-582.12 219.33,-571.74 219.33,-557.08 237.64,-546.7 263.54,-546.7 281.85,-557.08"/>
<text text-anchor="start" x="238.09" y="-560.71" font-family="Times New Roman,serif" font-size="14.00" fill="#000000">Q53</text>
</g>
<!-- Q53_Q54 -->
<g id="node6" class="node">
<title>Q53_Q54</title>
<g id="a_node6"><a xlink:title="0.66800714">
<polygon fill="#006400" stroke="#006400" points="314.84,-530 291.84,-507 314.84,-484 337.84,-507 314.84,-530"/>
<text text-anchor="start" x="311.34" y="-503.3" font-family="Times New Roman,serif" font-size="14.00" fill="#006400">1</text>
</a>
</g>
</g>
<!-- Q53&#45;&#45;Q53_Q54 -->
<g id="edge3" class="edge">
<title>Q53&#45;&#45;Q53_Q54</title>
<path fill="none" stroke="#000000" d="M267.81,-549.03C275.97,-541.73 285.79,-532.96 294.34,-525.32"/>
<polygon fill="#000000" stroke="#000000" points="296.41,-528.16 301.54,-518.89 291.75,-522.94 296.41,-528.16"/>
</g>
<!-- Q54 -->
<g id="node5" class="node">
<title>Q54</title>
<polygon fill="#87ceeb" stroke="#87ceeb" points="343.17,-582.41 343.17,-597.08 324.86,-607.46 298.96,-607.46 280.65,-597.08 280.65,-582.41 298.96,-572.04 324.86,-572.04 343.17,-582.41"/>
<text text-anchor="start" x="299.41" y="-586.05" font-family="Times New Roman,serif" font-size="14.00" fill="#000000">Q54</text>
</g>
<!-- Q54&#45;&#45;Q53_Q54 -->
<g id="edge4" class="edge">
<title>Q54&#45;&#45;Q53_Q54</title>
<path fill="none" stroke="#000000" d="M312.54,-571.79C312.86,-562.81 313.26,-551.64 313.63,-541.11"/>
<polygon fill="#000000" stroke="#000000" points="317.13,-541.29 313.98,-531.17 310.13,-541.04 317.13,-541.29"/>
</g>
<!-- Q53_Q54_Q59_Q62_Q66_Q56_Q64_Q70_Q67_Q68 -->
<g id="node27" class="node">
<title>Q53_Q54_Q59_Q62_Q66_Q56_Q64_Q70_Q67_Q68</title>
<g id="a_node27"><a xlink:title="0.8014188">
<polygon fill="#006400" stroke="#006400" points="356.54,-451.83 326.54,-428.83 356.54,-405.83 386.54,-428.83 356.54,-451.83"/>
<text text-anchor="start" x="349.54" y="-425.13" font-family="Times New Roman,serif" font-size="14.00" fill="#006400">11</text>
</a>
</g>
</g>
<!-- Q53_Q54&#45;&#45;Q53_Q54_Q59_Q62_Q66_Q56_Q64_Q70_Q67_Q68 -->
<g id="edge23" class="edge">
<title>Q53_Q54&#45;&#45;Q53_Q54_Q59_Q62_Q66_Q56_Q64_Q70_Q67_Q68</title>
<path fill="none" stroke="#000000" stroke-dasharray="5,2" d="M323.08,-491.56C328.55,-481.3 335.88,-467.57 342.28,-455.57"/>
<polygon fill="#000000" stroke="#000000" points="345.27,-457.4 346.88,-446.93 339.09,-454.11 345.27,-457.4"/>
</g>
<!-- Q56 -->
<g id="node7" class="node">
<title>Q56</title>
<polygon fill="#87ceeb" stroke="#87ceeb" points="458.36,-73.55 458.36,-88.22 440.04,-98.59 414.15,-98.59 395.83,-88.22 395.83,-73.55 414.15,-63.18 440.04,-63.18 458.36,-73.55"/>
<text text-anchor="start" x="414.59" y="-77.18" font-family="Times New Roman,serif" font-size="14.00" fill="#000000">Q56</text>
</g>
<!-- Q56_Q64 -->
<g id="node9" class="node">
<title>Q56_Q64</title>
<g id="a_node9"><a xlink:title="0.6685123">
<polygon fill="#006400" stroke="#006400" points="361.74,-147.46 338.74,-124.46 361.74,-101.46 384.74,-124.46 361.74,-147.46"/>
<text text-anchor="start" x="358.24" y="-120.76" font-family="Times New Roman,serif" font-size="14.00" fill="#006400">2</text>
</a>
</g>
</g>
<!-- Q56&#45;&#45;Q56_Q64 -->
<g id="edge5" class="edge">
<title>Q56&#45;&#45;Q56_Q64</title>
<path fill="none" stroke="#000000" d="M406.41,-94.67C399.68,-99.16 392.16,-104.18 385.23,-108.8"/>
<polygon fill="#000000" stroke="#000000" points="383.32,-105.87 376.94,-114.33 387.2,-111.69 383.32,-105.87"/>
</g>
<!-- Q64 -->
<g id="node8" class="node">
<title>Q64</title>
<polygon fill="#87ceeb" stroke="#87ceeb" points="376.66,-33.27 376.66,-47.94 358.34,-58.31 332.45,-58.31 314.14,-47.94 314.14,-33.27 332.45,-22.9 358.34,-22.9 376.66,-33.27"/>
<text text-anchor="start" x="332.9" y="-36.9" font-family="Times New Roman,serif" font-size="14.00" fill="#000000">Q64</text>
</g>
<!-- Q64&#45;&#45;Q56_Q64 -->
<g id="edge6" class="edge">
<title>Q64&#45;&#45;Q56_Q64</title>
<path fill="none" stroke="#000000" d="M348.94,-58.8C350.93,-68.99 353.45,-81.96 355.74,-93.68"/>
<polygon fill="#000000" stroke="#000000" points="352.27,-94.21 357.62,-103.35 359.15,-92.87 352.27,-94.21"/>
</g>
<!-- Q66_Q56_Q64 -->
<g id="node11" class="node">
<title>Q66_Q56_Q64</title>
<g id="a_node11"><a xlink:title="0.710724">
<polygon fill="#006400" stroke="#006400" points="315.35,-220.77 292.35,-197.77 315.35,-174.77 338.35,-197.77 315.35,-220.77"/>
<text text-anchor="start" x="311.85" y="-194.07" font-family="Times New Roman,serif" font-size="14.00" fill="#006400">3</text>
</a>
</g>
</g>
<!-- Q56_Q64&#45;&#45;Q66_Q56_Q64 -->
<g id="edge8" class="edge">
<title>Q56_Q64&#45;&#45;Q66_Q56_Q64</title>
<path fill="none" stroke="#000000" stroke-dasharray="5,2" d="M352.57,-138.94C346.28,-148.88 337.79,-162.31 330.5,-173.82"/>
<polygon fill="#000000" stroke="#000000" points="327.69,-171.71 325.3,-182.03 333.61,-175.46 327.69,-171.71"/>
</g>
<!-- Q66 -->
<g id="node10" class="node">
<title>Q66</title>
<polygon fill="#87ceeb" stroke="#87ceeb" points="305.21,-126.89 305.21,-141.55 286.89,-151.93 261,-151.93 242.69,-141.55 242.69,-126.89 261,-116.51 286.89,-116.51 305.21,-126.89"/>
<text text-anchor="start" x="261.45" y="-130.52" font-family="Times New Roman,serif" font-size="14.00" fill="#000000">Q66</text>
</g>
<!-- Q66&#45;&#45;Q66_Q56_Q64 -->
<g id="edge7" class="edge">
<title>Q66&#45;&#45;Q66_Q56_Q64</title>
<path fill="none" stroke="#000000" d="M285.7,-152.26C290.17,-159.12 295.33,-167.04 300.08,-174.33"/>
<polygon fill="#000000" stroke="#000000" points="296.98,-175.99 305.37,-182.45 302.85,-172.16 296.98,-175.99"/>
</g>
<!-- Q66_Q56_Q64_Q70_Q67_Q68 -->
<g id="node23" class="node">
<title>Q66_Q56_Q64_Q70_Q67_Q68</title>
<g id="a_node23"><a xlink:title="0.7674713">
<polygon fill="#006400" stroke="#006400" points="270.62,-296.14 247.62,-273.14 270.62,-250.14 293.62,-273.14 270.62,-296.14"/>
<text text-anchor="start" x="267.12" y="-269.44" font-family="Times New Roman,serif" font-size="14.00" fill="#006400">8</text>
</a>
</g>
</g>
<!-- Q66_Q56_Q64&#45;&#45;Q66_Q56_Q64_Q70_Q67_Q68 -->
<g id="edge17" class="edge">
<title>Q66_Q56_Q64&#45;&#45;Q66_Q56_Q64_Q70_Q67_Q68</title>
<path fill="none" stroke="#000000" stroke-dasharray="5,2" d="M306.72,-212.3C300.64,-222.56 292.33,-236.55 285.22,-248.53"/>
<polygon fill="#000000" stroke="#000000" points="282.24,-246.71 280.14,-257.09 288.26,-250.28 282.24,-246.71"/>
</g>
<!-- Q67 -->
<g id="node12" class="node">
<title>Q67</title>
<polygon fill="#87ceeb" stroke="#87ceeb" points="118.13,-105.8 118.13,-120.47 99.82,-130.84 73.92,-130.84 55.61,-120.47 55.61,-105.8 73.92,-95.43 99.82,-95.43 118.13,-105.8"/>
<text text-anchor="start" x="74.37" y="-109.44" font-family="Times New Roman,serif" font-size="14.00" fill="#000000">Q67</text>
</g>
<!-- Q67_Q68 -->
<g id="node14" class="node">
<title>Q67_Q68</title>
<g id="a_node14"><a xlink:title="0.7172657">
<polygon fill="#006400" stroke="#006400" points="116,-210.45 93,-187.45 116,-164.45 139,-187.45 116,-210.45"/>
<text text-anchor="start" x="112.5" y="-183.75" font-family="Times New Roman,serif" font-size="14.00" fill="#006400">4</text>
</a>
</g>
</g>
<!-- Q67&#45;&#45;Q67_Q68 -->
<g id="edge9" class="edge">
<title>Q67&#45;&#45;Q67_Q68</title>
<path fill="none" stroke="#000000" d="M93.92,-131.13C97.31,-139.77 101.44,-150.32 105.22,-159.95"/>
<polygon fill="#000000" stroke="#000000" points="101.95,-161.2 108.86,-169.24 108.47,-158.65 101.95,-161.2"/>
</g>
<!-- Q68 -->
<g id="node13" class="node">
<title>Q68</title>
<polygon fill="#87ceeb" stroke="#87ceeb" points="62.64,-186.32 62.64,-200.99 44.33,-211.36 18.43,-211.36 0.12,-200.99 0.12,-186.32 18.43,-175.95 44.33,-175.95 62.64,-186.32"/>
<text text-anchor="start" x="18.88" y="-189.96" font-family="Times New Roman,serif" font-size="14.00" fill="#000000">Q68</text>
</g>
<!-- Q68&#45;&#45;Q67_Q68 -->
<g id="edge10" class="edge">
<title>Q68&#45;&#45;Q67_Q68</title>
<path fill="none" stroke="#000000" d="M62.89,-191.35C69.35,-190.87 76.17,-190.37 82.69,-189.89"/>
<polygon fill="#000000" stroke="#000000" points="82.74,-193.4 92.46,-189.18 82.23,-186.42 82.74,-193.4"/>
</g>
<!-- Q70_Q67_Q68 -->
<g id="node19" class="node">
<title>Q70_Q67_Q68</title>
<g id="a_node19"><a xlink:title="0.73333144">
<polygon fill="#006400" stroke="#006400" points="185.21,-264.94 162.21,-241.94 185.21,-218.94 208.21,-241.94 185.21,-264.94"/>
<text text-anchor="start" x="181.71" y="-238.24" font-family="Times New Roman,serif" font-size="14.00" fill="#006400">6</text>
</a>
</g>
</g>
<!-- Q67_Q68&#45;&#45;Q70_Q67_Q68 -->
<g id="edge14" class="edge">
<title>Q67_Q68&#45;&#45;Q70_Q67_Q68</title>
<path fill="none" stroke="#000000" stroke-dasharray="5,2" d="M129.01,-197.7C138.68,-205.31 152.09,-215.87 163.39,-224.76"/>
<polygon fill="#000000" stroke="#000000" points="161.04,-227.36 171.06,-230.8 165.37,-221.86 161.04,-227.36"/>
</g>
<!-- Q59 -->
<g id="node15" class="node">
<title>Q59</title>
<polygon fill="#87ceeb" stroke="#87ceeb" points="197.19,-464.09 197.19,-478.76 178.87,-489.14 152.98,-489.14 134.66,-478.76 134.66,-464.09 152.98,-453.72 178.87,-453.72 197.19,-464.09"/>
<text text-anchor="start" x="153.43" y="-467.73" font-family="Times New Roman,serif" font-size="14.00" fill="#000000">Q59</text>
</g>
<!-- Q59_Q62 -->
<g id="node17" class="node">
<title>Q59_Q62</title>
<g id="a_node17"><a xlink:title="0.7248908">
<polygon fill="#006400" stroke="#006400" points="218.37,-427.18 195.37,-404.18 218.37,-381.18 241.37,-404.18 218.37,-427.18"/>
<text text-anchor="start" x="214.87" y="-400.48" font-family="Times New Roman,serif" font-size="14.00" fill="#006400">5</text>
</a>
</g>
</g>
<!-- Q59&#45;&#45;Q59_Q62 -->
<g id="edge11" class="edge">
<title>Q59&#45;&#45;Q59_Q62</title>
<path fill="none" stroke="#000000" d="M179.7,-453.76C186.21,-445.42 194.05,-435.36 200.96,-426.5"/>
<polygon fill="#000000" stroke="#000000" points="203.67,-428.71 207.06,-418.68 198.15,-424.41 203.67,-428.71"/>
</g>
<!-- Q62 -->
<g id="node16" class="node">
<title>Q62</title>
<polygon fill="#87ceeb" stroke="#87ceeb" points="167.16,-406.64 167.16,-421.31 148.85,-431.68 122.95,-431.68 104.64,-421.31 104.64,-406.64 122.95,-396.26 148.85,-396.26 167.16,-406.64"/>
<text text-anchor="start" x="123.4" y="-410.27" font-family="Times New Roman,serif" font-size="14.00" fill="#000000">Q62</text>
</g>
<!-- Q62&#45;&#45;Q59_Q62 -->
<g id="edge12" class="edge">
<title>Q62&#45;&#45;Q59_Q62</title>
<path fill="none" stroke="#000000" d="M167.55,-410.21C173.64,-409.49 180.02,-408.73 186.13,-408.01"/>
<polygon fill="#000000" stroke="#000000" points="186.36,-411.5 195.88,-406.85 185.54,-404.55 186.36,-411.5"/>
</g>
<!-- Q59_Q62_Q66_Q56_Q64_Q70_Q67_Q68 -->
<g id="node24" class="node">
<title>Q59_Q62_Q66_Q56_Q64_Q70_Q67_Q68</title>
<g id="a_node24"><a xlink:title="0.77424556">
<polygon fill="#006400" stroke="#006400" points="294.54,-384.68 271.54,-361.68 294.54,-338.68 317.54,-361.68 294.54,-384.68"/>
<text text-anchor="start" x="291.04" y="-357.98" font-family="Times New Roman,serif" font-size="14.00" fill="#006400">9</text>
</a>
</g>
</g>
<!-- Q59_Q62&#45;&#45;Q59_Q62_Q66_Q56_Q64_Q70_Q67_Q68 -->
<g id="edge19" class="edge">
<title>Q59_Q62&#45;&#45;Q59_Q62_Q66_Q56_Q64_Q70_Q67_Q68</title>
<path fill="none" stroke="#000000" stroke-dasharray="5,2" d="M233.42,-395.78C243.74,-390.02 257.69,-382.24 269.66,-375.56"/>
<polygon fill="#000000" stroke="#000000" points="271.17,-378.73 278.2,-370.8 267.76,-372.61 271.17,-378.73"/>
</g>
<!-- Q70 -->
<g id="node18" class="node">
<title>Q70</title>
<polygon fill="#87ceeb" stroke="#87ceeb" points="147.04,-269.96 147.04,-284.63 128.73,-295 102.83,-295 84.52,-284.63 84.52,-269.96 102.83,-259.59 128.73,-259.59 147.04,-269.96"/>
<text text-anchor="start" x="103.28" y="-273.6" font-family="Times New Roman,serif" font-size="14.00" fill="#000000">Q70</text>
</g>
<!-- Q70&#45;&#45;Q70_Q67_Q68 -->
<g id="edge13" class="edge">
<title>Q70&#45;&#45;Q70_Q67_Q68</title>
<path fill="none" stroke="#000000" d="M139.28,-265.33C145.89,-261.96 153.11,-258.28 159.82,-254.87"/>
<polygon fill="#000000" stroke="#000000" points="161.13,-258.13 168.45,-250.47 157.95,-251.89 161.13,-258.13"/>
</g>
<!-- Q70_Q67_Q68&#45;&#45;Q66_Q56_Q64_Q70_Q67_Q68 -->
<g id="edge18" class="edge">
<title>Q70_Q67_Q68&#45;&#45;Q66_Q56_Q64_Q70_Q67_Q68</title>
<path fill="none" stroke="#000000" stroke-dasharray="5,2" d="M202.49,-248.25C214.07,-252.48 229.56,-258.14 242.85,-262.99"/>
<polygon fill="#000000" stroke="#000000" points="241.35,-266.17 251.94,-266.31 243.75,-259.6 241.35,-266.17"/>
</g>
<!-- Q75 -->
<g id="node20" class="node">
<title>Q75</title>
<polygon fill="#87ceeb" stroke="#87ceeb" points="791.57,-426.87 791.57,-441.54 773.25,-451.91 747.36,-451.91 729.04,-441.54 729.04,-426.87 747.36,-416.5 773.25,-416.5 791.57,-426.87"/>
<text text-anchor="start" x="747.8" y="-430.5" font-family="Times New Roman,serif" font-size="14.00" fill="#000000">Q75</text>
</g>
<!-- Q75_Q80 -->
<g id="node22" class="node">
<title>Q75_Q80</title>
<g id="a_node22"><a xlink:title="0.73580325">
<polygon fill="#006400" stroke="#006400" points="685.42,-489.95 662.42,-466.95 685.42,-443.95 708.42,-466.95 685.42,-489.95"/>
<text text-anchor="start" x="681.92" y="-463.25" font-family="Times New Roman,serif" font-size="14.00" fill="#006400">7</text>
</a>
</g>
</g>
<!-- Q75&#45;&#45;Q75_Q80 -->
<g id="edge15" class="edge">
<title>Q75&#45;&#45;Q75_Q80</title>
<path fill="none" stroke="#000000" d="M734.95,-445.29C727.54,-448.53 719.42,-452.08 711.94,-455.35"/>
<polygon fill="#000000" stroke="#000000" points="710.73,-452.06 702.97,-459.27 713.54,-458.47 710.73,-452.06"/>
</g>
<!-- Q80 -->
<g id="node21" class="node">
<title>Q80</title>
<polygon fill="#87ceeb" stroke="#87ceeb" points="762.68,-525.92 762.68,-540.59 744.37,-550.96 718.47,-550.96 700.16,-540.59 700.16,-525.92 718.47,-515.55 744.37,-515.55 762.68,-525.92"/>
<text text-anchor="start" x="718.92" y="-529.55" font-family="Times New Roman,serif" font-size="14.00" fill="#000000">Q80</text>
</g>
<!-- Q80&#45;&#45;Q75_Q80 -->
<g id="edge16" class="edge">
<title>Q80&#45;&#45;Q75_Q80</title>
<path fill="none" stroke="#000000" d="M718.85,-515.14C713.48,-507.39 707.14,-498.26 701.44,-490.05"/>
<polygon fill="#000000" stroke="#000000" points="704.35,-488.09 695.77,-481.87 698.59,-492.08 704.35,-488.09"/>
</g>
<!-- Q72_Q75_Q80 -->
<g id="node26" class="node">
<title>Q72_Q75_Q80</title>
<g id="a_node26"><a xlink:title="0.78496844">
<polygon fill="#006400" stroke="#006400" points="609.13,-452.73 579.13,-429.73 609.13,-406.73 639.13,-429.73 609.13,-452.73"/>
<text text-anchor="start" x="602.13" y="-426.03" font-family="Times New Roman,serif" font-size="14.00" fill="#006400">10</text>
</a>
</g>
</g>
<!-- Q75_Q80&#45;&#45;Q72_Q75_Q80 -->
<g id="edge22" class="edge">
<title>Q75_Q80&#45;&#45;Q72_Q75_Q80</title>
<path fill="none" stroke="#000000" stroke-dasharray="5,2" d="M669.61,-459.24C660.51,-454.8 648.79,-449.08 638.1,-443.86"/>
<polygon fill="#000000" stroke="#000000" points="639.76,-440.78 629.24,-439.54 636.69,-447.07 639.76,-440.78"/>
</g>
<!-- Q66_Q56_Q64_Q70_Q67_Q68&#45;&#45;Q59_Q62_Q66_Q56_Q64_Q70_Q67_Q68 -->
<g id="edge20" class="edge">
<title>Q66_Q56_Q64_Q70_Q67_Q68&#45;&#45;Q59_Q62_Q66_Q56_Q64_Q70_Q67_Q68</title>
<path fill="none" stroke="#000000" stroke-dasharray="5,2" d="M275.58,-291.48C278.73,-303.16 282.89,-318.55 286.5,-331.94"/>
<polygon fill="#000000" stroke="#000000" points="283.13,-332.85 289.11,-341.59 289.88,-331.02 283.13,-332.85"/>
</g>
<!-- Q59_Q62_Q66_Q56_Q64_Q70_Q67_Q68&#45;&#45;Q53_Q54_Q59_Q62_Q66_Q56_Q64_Q70_Q67_Q68 -->
<g id="edge24" class="edge">
<title>Q59_Q62_Q66_Q56_Q64_Q70_Q67_Q68&#45;&#45;Q53_Q54_Q59_Q62_Q66_Q56_Q64_Q70_Q67_Q68</title>
<path fill="none" stroke="#000000" stroke-dasharray="5,2" d="M305.91,-374C314.41,-383.2 326.25,-396.02 336.34,-406.95"/>
<polygon fill="#000000" stroke="#000000" points="333.58,-409.12 342.93,-414.1 338.72,-404.38 333.58,-409.12"/>
</g>
<!-- Q72 -->
<g id="node25" class="node">
<title>Q72</title>
<polygon fill="#87ceeb" stroke="#87ceeb" points="679.26,-351.46 679.26,-366.13 660.94,-376.51 635.05,-376.51 616.73,-366.13 616.73,-351.46 635.05,-341.09 660.94,-341.09 679.26,-351.46"/>
<text text-anchor="start" x="635.5" y="-355.1" font-family="Times New Roman,serif" font-size="14.00" fill="#000000">Q72</text>
</g>
<!-- Q72&#45;&#45;Q72_Q75_Q80 -->
<g id="edge21" class="edge">
<title>Q72&#45;&#45;Q72_Q75_Q80</title>
<path fill="none" stroke="#000000" d="M638.19,-376.7C633.73,-384.84 628.36,-394.63 623.46,-403.58"/>
<polygon fill="#000000" stroke="#000000" points="620.47,-401.75 618.73,-412.21 626.61,-405.12 620.47,-401.75"/>
</g>
<!-- Q72_Q75_Q80_Q46_Q57_Q53_Q54_Q59_Q62_Q66_Q56_Q64_Q70_Q67_Q68 -->
<g id="node29" class="node">
<title>Q72_Q75_Q80_Q46_Q57_Q53_Q54_Q59_Q62_Q66_Q56_Q64_Q70_Q67_Q68</title>
<g id="a_node29"><a xlink:title="0.9171307">
<polygon fill="#8b0000" stroke="#8b0000" points="524.29,-457.36 494.29,-434.36 524.29,-411.36 554.29,-434.36 524.29,-457.36"/>
<text text-anchor="start" x="517.29" y="-430.66" font-family="Times New Roman,serif" font-size="14.00" fill="#8b0000">13</text>
</a>
</g>
</g>
<!-- Q72_Q75_Q80&#45;&#45;Q72_Q75_Q80_Q46_Q57_Q53_Q54_Q59_Q62_Q66_Q56_Q64_Q70_Q67_Q68 -->
<g id="edge27" class="edge">
<title>Q72_Q75_Q80&#45;&#45;Q72_Q75_Q80_Q46_Q57_Q53_Q54_Q59_Q62_Q66_Q56_Q64_Q70_Q67_Q68</title>
<path fill="none" stroke="#000000" stroke-dasharray="5,2" d="M580.41,-431.3C575.16,-431.58 569.59,-431.89 564.09,-432.19"/>
<polygon fill="#000000" stroke="#000000" points="564.29,-428.67 554.5,-432.71 564.67,-435.66 564.29,-428.67"/>
</g>
<!-- Q53_Q54_Q59_Q62_Q66_Q56_Q64_Q70_Q67_Q68&#45;&#45;Q46_Q57_Q53_Q54_Q59_Q62_Q66_Q56_Q64_Q70_Q67_Q68 -->
<g id="edge26" class="edge">
<title>Q53_Q54_Q59_Q62_Q66_Q56_Q64_Q70_Q67_Q68&#45;&#45;Q46_Q57_Q53_Q54_Q59_Q62_Q66_Q56_Q64_Q70_Q67_Q68</title>
<path fill="none" stroke="#000000" stroke-dasharray="5,2" d="M377.61,-436.07C387.35,-439.41 399.12,-443.45 409.9,-447.15"/>
<polygon fill="#000000" stroke="#000000" points="408.64,-450.42 419.23,-450.35 410.91,-443.8 408.64,-450.42"/>
</g>
<!-- Q46_Q57_Q53_Q54_Q59_Q62_Q66_Q56_Q64_Q70_Q67_Q68&#45;&#45;Q72_Q75_Q80_Q46_Q57_Q53_Q54_Q59_Q62_Q66_Q56_Q64_Q70_Q67_Q68 -->
<g id="edge28" class="edge">
<title>Q46_Q57_Q53_Q54_Q59_Q62_Q66_Q56_Q64_Q70_Q67_Q68&#45;&#45;Q72_Q75_Q80_Q46_Q57_Q53_Q54_Q59_Q62_Q66_Q56_Q64_Q70_Q67_Q68</title>
<path fill="none" stroke="#000000" stroke-dasharray="5,2" d="M463.9,-451.73C472.31,-449.31 482.1,-446.5 491.3,-443.85"/>
<polygon fill="#000000" stroke="#000000" points="492.02,-447.28 500.67,-441.16 490.09,-440.56 492.02,-447.28"/>
</g>
<!-- legend -->
<g id="node30" class="node">
<title>legend</title>
<polygon fill="none" stroke="black" points="738.5,-188 738.5,-213 819.5,-213 819.5,-188 738.5,-188"/>
<text text-anchor="start" x="756" y="-197.8" font-family="Times New Roman,serif" font-weight="bold" font-size="14.00">Legend</text>
<polygon fill="none" stroke="black" points="738.5,-163 738.5,-188 785.5,-188 785.5,-163 738.5,-163"/>
<text text-anchor="start" x="743.5" y="-171.8" font-family="Times New Roman,serif" font-size="14.00">Nodes</text>
<polygon fill="#87ceeb" stroke="none" points="785.5,-163 785.5,-188 819.5,-188 819.5,-163 785.5,-163"/>
<polygon fill="none" stroke="black" points="785.5,-163 785.5,-188 819.5,-188 819.5,-163 785.5,-163"/>
<text text-anchor="start" x="790.5" y="-171.8" font-family="Times New Roman,serif" font-size="14.00" fill="#87ceeb">Foo</text>
<polygon fill="none" stroke="black" points="738.5,-138 738.5,-163 785.5,-163 785.5,-138 738.5,-138"/>
<text text-anchor="start" x="746.5" y="-146.8" font-family="Times New Roman,serif" font-size="14.00">Links</text>
<polygon fill="#006400" stroke="none" points="785.5,-138 785.5,-163 819.5,-163 819.5,-138 785.5,-138"/>
<polygon fill="none" stroke="black" points="785.5,-138 785.5,-163 819.5,-163 819.5,-138 785.5,-138"/>
<text text-anchor="start" x="790.5" y="-146.8" font-family="Times New Roman,serif" font-size="14.00" fill="#006400">Foo</text>
<polygon fill="none" stroke="black" points="738.5,-113 738.5,-138 785.5,-138 785.5,-113 738.5,-113"/>
<text text-anchor="start" x="748" y="-121.8" font-family="Times New Roman,serif" font-size="14.00">Final</text>
<polygon fill="#8b0000" stroke="none" points="785.5,-113 785.5,-138 819.5,-138 819.5,-113 785.5,-113"/>
<polygon fill="none" stroke="black" points="785.5,-113 785.5,-138 819.5,-138 819.5,-113 785.5,-113"/>
<text text-anchor="start" x="790.5" y="-121.8" font-family="Times New Roman,serif" font-size="14.00" fill="#8b0000">Foo</text>
</g>
</g>
</svg>
