<?xml version="1.0" encoding="UTF-8" standalone="no"?>
<!DOCTYPE svg PUBLIC "-//W3C//DTD SVG 1.1//EN"
 "http://www.w3.org/Graphics/SVG/1.1/DTD/svg11.dtd">
<!-- Generated by graphviz version 7.0.3 (20221126.0506)
 -->
<!-- Title: phylogenetic_tree Pages: 1 -->
<svg width="598pt" height="431pt"
 viewBox="0.00 0.00 597.68 430.52" xmlns="http://www.w3.org/2000/svg" xmlns:xlink="http://www.w3.org/1999/xlink">
<g id="graph0" class="graph" transform="scale(1 1) rotate(0) translate(4 426.52)">
<title>phylogenetic_tree</title>
<polygon fill="white" stroke="none" points="-4,4 -4,-426.52 593.68,-426.52 593.68,4 -4,4"/>
<text text-anchor="middle" x="294.84" y="-7.8" font-family="Times New Roman,serif" font-size="14.00">Phylogenetic Tree from: Book1.csv</text>
<!-- frog -->
<g id="node1" class="node">
<title>frog</title>
<polygon fill="skyblue" stroke="skyblue" points="61.34,-254.87 61.34,-269.54 43.34,-279.92 17.89,-279.92 -0.12,-269.54 -0.12,-254.87 17.89,-244.5 43.34,-244.5 61.34,-254.87"/>
<text text-anchor="middle" x="30.61" y="-258.51" font-family="Times New Roman,serif" font-size="14.00" fill="#000000">frog</text>
</g>
<!-- frog_salamander -->
<g id="node3" class="node">
<title>frog_salamander</title>
<path fill="none" stroke="#006400" d="M103.71,-275.24C103.71,-275.24 96.05,-267.58 96.05,-267.58 92.21,-263.74 92.21,-256.08 96.05,-252.24 96.05,-252.24 103.71,-244.58 103.71,-244.58 107.55,-240.74 115.21,-240.74 119.05,-244.58 119.05,-244.58 126.71,-252.24 126.71,-252.24 130.55,-256.08 130.55,-263.74 126.71,-267.58 126.71,-267.58 119.05,-275.24 119.05,-275.24 115.21,-279.08 107.55,-279.08 103.71,-275.24"/>
<text text-anchor="middle" x="111.38" y="-256.21" font-family="Times New Roman,serif" font-size="14.00" fill="#006400">0</text>
<text text-anchor="middle" x="84.88" y="-286.71" font-family="Times New Roman,serif" font-size="14.00" fill="#006400">0</text>
</g>
<!-- frog&#45;&#45;frog_salamander -->
<g id="edge1" class="edge">
<title>frog&#45;&#45;frog_salamander</title>
<path fill="none" stroke="#000000" d="M61.61,-261.33C66.61,-261.19 71.82,-261.04 76.9,-260.89"/>
<polygon fill="#000000" stroke="#000000" points="76.96,-264.39 86.86,-260.61 76.76,-257.39 76.96,-264.39"/>
</g>
<!-- salamander -->
<g id="node2" class="node">
<title>salamander</title>
<polygon fill="skyblue" stroke="skyblue" points="147.47,-329.19 147.47,-343.86 112.07,-354.23 62.01,-354.23 26.61,-343.86 26.61,-329.19 62.01,-318.82 112.07,-318.82 147.47,-329.19"/>
<text text-anchor="middle" x="87.04" y="-332.83" font-family="Times New Roman,serif" font-size="14.00" fill="#000000">salamander</text>
</g>
<!-- salamander&#45;&#45;frog_salamander -->
<g id="edge2" class="edge">
<title>salamander&#45;&#45;frog_salamander</title>
<path fill="none" stroke="#000000" d="M92.81,-318.37C95.65,-309.43 99.14,-298.45 102.32,-288.42"/>
<polygon fill="#000000" stroke="#000000" points="105.59,-289.71 105.28,-279.12 98.91,-287.59 105.59,-289.71"/>
</g>
<!-- frog_salamander_turtle_mammal -->
<g id="node13" class="node">
<title>frog_salamander_turtle_mammal</title>
<polygon fill="none" stroke="#00bfff" points="171.62,-222.44 148.62,-199.44 171.62,-176.44 194.62,-199.44 171.62,-222.44"/>
<text text-anchor="middle" x="171.62" y="-195.74" font-family="Times New Roman,serif" font-size="14.00" fill="#00bfff">4</text>
<text text-anchor="middle" x="133.12" y="-180.24" font-family="Times New Roman,serif" font-size="14.00" fill="#00bfff">0.308</text>
</g>
<!-- frog_salamander&#45;&#45;frog_salamander_turtle_mammal -->
<g id="edge9" class="edge">
<title>frog_salamander&#45;&#45;frog_salamander_turtle_mammal</title>
<path fill="none" stroke="#000000" stroke-dasharray="5,2" d="M122.99,-248.25C131.25,-239.97 142.52,-228.65 152.14,-219"/>
<polygon fill="#000000" stroke="#000000" points="154.4,-221.69 158.97,-212.14 149.44,-216.75 154.4,-221.69"/>
</g>
<!-- lizard -->
<g id="node4" class="node">
<title>lizard</title>
<polygon fill="skyblue" stroke="skyblue" points="376.87,-397.59 376.87,-412.25 355.82,-422.63 326.04,-422.63 304.98,-412.25 304.98,-397.59 326.04,-387.21 355.82,-387.21 376.87,-397.59"/>
<text text-anchor="middle" x="340.93" y="-401.22" font-family="Times New Roman,serif" font-size="14.00" fill="#000000">lizard</text>
</g>
<!-- lizard_snake -->
<g id="node6" class="node">
<title>lizard_snake</title>
<path fill="none" stroke="#006400" d="M352.81,-342.11C352.81,-342.11 345.14,-334.45 345.14,-334.45 341.31,-330.61 341.31,-322.95 345.14,-319.11 345.14,-319.11 352.81,-311.45 352.81,-311.45 356.64,-307.61 364.31,-307.61 368.14,-311.45 368.14,-311.45 375.81,-319.11 375.81,-319.11 379.64,-322.95 379.64,-330.61 375.81,-334.45 375.81,-334.45 368.14,-342.11 368.14,-342.11 364.31,-345.95 356.64,-345.95 352.81,-342.11"/>
<text text-anchor="middle" x="360.47" y="-323.08" font-family="Times New Roman,serif" font-size="14.00" fill="#006400">1</text>
<text text-anchor="middle" x="321.97" y="-353.58" font-family="Times New Roman,serif" font-size="14.00" fill="#006400">0.077</text>
</g>
<!-- lizard&#45;&#45;lizard_snake -->
<g id="edge3" class="edge">
<title>lizard&#45;&#45;lizard_snake</title>
<path fill="none" stroke="#000000" d="M345.46,-386.8C347.71,-377.82 350.48,-366.75 353.02,-356.57"/>
<polygon fill="#000000" stroke="#000000" points="356.36,-357.64 355.39,-347.09 349.57,-355.94 356.36,-357.64"/>
</g>
<!-- snake -->
<g id="node5" class="node">
<title>snake</title>
<polygon fill="skyblue" stroke="skyblue" points="462.94,-365.96 462.94,-380.63 441.28,-391 410.64,-391 388.98,-380.63 388.98,-365.96 410.64,-355.59 441.28,-355.59 462.94,-365.96"/>
<text text-anchor="middle" x="425.96" y="-369.6" font-family="Times New Roman,serif" font-size="14.00" fill="#000000">snake</text>
</g>
<!-- snake&#45;&#45;lizard_snake -->
<g id="edge4" class="edge">
<title>snake&#45;&#45;lizard_snake</title>
<path fill="none" stroke="#000000" d="M404.52,-358.07C397.65,-353.18 390.02,-347.76 383.06,-342.83"/>
<polygon fill="#000000" stroke="#000000" points="385.55,-340.3 375.37,-337.36 381.5,-346.01 385.55,-340.3"/>
</g>
<!-- lizard_snake_rayfinfish_frog_salamander_turtle_mammal -->
<g id="node16" class="node">
<title>lizard_snake_rayfinfish_frog_salamander_turtle_mammal</title>
<polygon fill="none" stroke="#00bfff" points="339.04,-267.02 316.04,-244.02 339.04,-221.02 362.04,-244.02 339.04,-267.02"/>
<text text-anchor="middle" x="339.04" y="-240.32" font-family="Times New Roman,serif" font-size="14.00" fill="#00bfff">6</text>
<text text-anchor="middle" x="290.04" y="-270.82" font-family="Times New Roman,serif" font-size="14.00" fill="#00bfff">0.519125</text>
</g>
<!-- lizard_snake&#45;&#45;lizard_snake_rayfinfish_frog_salamander_turtle_mammal -->
<g id="edge13" class="edge">
<title>lizard_snake&#45;&#45;lizard_snake_rayfinfish_frog_salamander_turtle_mammal</title>
<path fill="none" stroke="#000000" stroke-dasharray="5,2" d="M355.61,-308C352.98,-297.84 349.67,-285.06 346.7,-273.6"/>
<polygon fill="#000000" stroke="#000000" points="350.16,-272.99 344.26,-264.19 343.38,-274.75 350.16,-272.99"/>
</g>
<!-- turtle -->
<g id="node7" class="node">
<title>turtle</title>
<polygon fill="skyblue" stroke="skyblue" points="165.53,-33.27 165.53,-47.94 145.7,-58.31 117.65,-58.31 97.82,-47.94 97.82,-33.27 117.65,-22.9 145.7,-22.9 165.53,-33.27"/>
<text text-anchor="middle" x="131.67" y="-36.9" font-family="Times New Roman,serif" font-size="14.00" fill="#000000">turtle</text>
</g>
<!-- turtle_mammal -->
<g id="node9" class="node">
<title>turtle_mammal</title>
<path fill="none" stroke="#006400" d="M122.59,-137.66C122.59,-137.66 114.92,-130 114.92,-130 111.09,-126.16 111.09,-118.5 114.92,-114.66 114.92,-114.66 122.59,-107 122.59,-107 126.42,-103.16 134.09,-103.16 137.92,-107 137.92,-107 145.59,-114.66 145.59,-114.66 149.42,-118.5 149.42,-126.16 145.59,-130 145.59,-130 137.92,-137.66 137.92,-137.66 134.09,-141.5 126.42,-141.5 122.59,-137.66"/>
<text text-anchor="middle" x="130.25" y="-118.63" font-family="Times New Roman,serif" font-size="14.00" fill="#006400">2</text>
<text text-anchor="middle" x="91.75" y="-149.13" font-family="Times New Roman,serif" font-size="14.00" fill="#006400">0.231</text>
</g>
<!-- turtle&#45;&#45;turtle_mammal -->
<g id="edge5" class="edge">
<title>turtle&#45;&#45;turtle_mammal</title>
<path fill="none" stroke="#000000" d="M131.36,-58.74C131.21,-67.33 131.03,-77.87 130.85,-87.89"/>
<polygon fill="#000000" stroke="#000000" points="127.36,-87.69 130.68,-97.75 134.35,-87.81 127.36,-87.69"/>
</g>
<!-- mammal -->
<g id="node8" class="node">
<title>mammal</title>
<polygon fill="skyblue" stroke="skyblue" points="103.35,-87.06 103.35,-101.73 74.97,-112.11 34.85,-112.11 6.47,-101.73 6.47,-87.06 34.85,-76.69 74.97,-76.69 103.35,-87.06"/>
<text text-anchor="middle" x="54.91" y="-90.7" font-family="Times New Roman,serif" font-size="14.00" fill="#000000">mammal</text>
</g>
<!-- mammal&#45;&#45;turtle_mammal -->
<g id="edge6" class="edge">
<title>mammal&#45;&#45;turtle_mammal</title>
<path fill="none" stroke="#000000" d="M89.49,-107.22C93.85,-108.84 98.26,-110.47 102.5,-112.04"/>
<polygon fill="#000000" stroke="#000000" points="101.11,-115.26 111.7,-115.45 103.54,-108.69 101.11,-115.26"/>
</g>
<!-- turtle_mammal&#45;&#45;frog_salamander_turtle_mammal -->
<g id="edge10" class="edge">
<title>turtle_mammal&#45;&#45;frog_salamander_turtle_mammal</title>
<path fill="none" stroke="#000000" stroke-dasharray="5,2" d="M138.43,-137.57C144.04,-148.02 151.61,-162.14 158.11,-174.25"/>
<polygon fill="#000000" stroke="#000000" points="154.94,-175.75 162.75,-182.9 161.11,-172.44 154.94,-175.75"/>
</g>
<!-- crocodile -->
<g id="node10" class="node">
<title>crocodile</title>
<polygon fill="skyblue" stroke="skyblue" points="563.62,-74.48 563.62,-89.15 532.8,-99.53 489.21,-99.53 458.38,-89.15 458.38,-74.48 489.21,-64.11 532.8,-64.11 563.62,-74.48"/>
<text text-anchor="middle" x="511" y="-78.12" font-family="Times New Roman,serif" font-size="14.00" fill="#000000">crocodile</text>
</g>
<!-- crocodile_bird -->
<g id="node12" class="node">
<title>crocodile_bird</title>
<path fill="none" stroke="#006400" d="M475.26,-172.51C475.26,-172.51 467.6,-164.84 467.6,-164.84 463.76,-161.01 463.76,-153.34 467.6,-149.51 467.6,-149.51 475.26,-141.84 475.26,-141.84 479.1,-138.01 486.76,-138.01 490.6,-141.84 490.6,-141.84 498.26,-149.51 498.26,-149.51 502.1,-153.34 502.1,-161.01 498.26,-164.84 498.26,-164.84 490.6,-172.51 490.6,-172.51 486.76,-176.34 479.1,-176.34 475.26,-172.51"/>
<text text-anchor="middle" x="482.93" y="-153.47" font-family="Times New Roman,serif" font-size="14.00" fill="#006400">3</text>
<text text-anchor="middle" x="444.43" y="-137.97" font-family="Times New Roman,serif" font-size="14.00" fill="#006400">0.231</text>
</g>
<!-- crocodile&#45;&#45;crocodile_bird -->
<g id="edge7" class="edge">
<title>crocodile&#45;&#45;crocodile_bird</title>
<path fill="none" stroke="#000000" d="M504.35,-99.68C501.05,-108.53 496.99,-119.43 493.3,-129.34"/>
<polygon fill="#000000" stroke="#000000" points="490.08,-127.95 489.87,-138.55 496.64,-130.4 490.08,-127.95"/>
</g>
<!-- bird -->
<g id="node11" class="node">
<title>bird</title>
<polygon fill="skyblue" stroke="skyblue" points="589.53,-171.95 589.53,-186.62 572.13,-197 547.53,-197 530.13,-186.62 530.13,-171.95 547.53,-161.58 572.13,-161.58 589.53,-171.95"/>
<text text-anchor="middle" x="559.83" y="-175.59" font-family="Times New Roman,serif" font-size="14.00" fill="#000000">bird</text>
</g>
<!-- bird&#45;&#45;crocodile_bird -->
<g id="edge8" class="edge">
<title>bird&#45;&#45;crocodile_bird</title>
<path fill="none" stroke="#000000" d="M531.19,-171.05C524.89,-169.24 518.22,-167.32 511.91,-165.51"/>
<polygon fill="#000000" stroke="#000000" points="513.13,-162.22 502.55,-162.82 511.2,-168.95 513.13,-162.22"/>
</g>
<!-- crocodile_bird_lizard_snake_rayfinfish_frog_salamander_turtle_mammal -->
<g id="node17" class="node">
<title>crocodile_bird_lizard_snake_rayfinfish_frog_salamander_turtle_mammal</title>
<polygon fill="none" stroke="#8b0000" points="411.64,-220.71 388.64,-197.71 411.64,-174.71 434.64,-197.71 411.64,-220.71"/>
<polyline fill="none" stroke="#8b0000" points="396.31,-205.37 396.31,-190.04"/>
<polyline fill="none" stroke="#8b0000" points="403.97,-182.37 419.31,-182.37"/>
<polyline fill="none" stroke="#8b0000" points="426.97,-190.04 426.97,-205.37"/>
<polyline fill="none" stroke="#8b0000" points="419.31,-213.04 403.97,-213.04"/>
<text text-anchor="middle" x="411.64" y="-194.01" font-family="Times New Roman,serif" font-size="14.00" fill="#8b0000">7</text>
<text text-anchor="middle" x="359.64" y="-178.51" font-family="Times New Roman,serif" font-size="14.00" fill="#8b0000">0.5744375</text>
</g>
<!-- crocodile_bird&#45;&#45;crocodile_bird_lizard_snake_rayfinfish_frog_salamander_turtle_mammal -->
<g id="edge15" class="edge">
<title>crocodile_bird&#45;&#45;crocodile_bird_lizard_snake_rayfinfish_frog_salamander_turtle_mammal</title>
<path fill="none" stroke="#000000" stroke-dasharray="5,2" d="M468.16,-165.57C458.98,-170.79 446.96,-177.63 436.36,-183.65"/>
<polygon fill="#000000" stroke="#000000" points="434.67,-180.59 427.71,-188.57 438.13,-186.67 434.67,-180.59"/>
</g>
<!-- rayfinfish_frog_salamander_turtle_mammal -->
<g id="node15" class="node">
<title>rayfinfish_frog_salamander_turtle_mammal</title>
<path fill="none" stroke="#006400" d="M250.88,-224.75C250.88,-224.75 243.21,-217.09 243.21,-217.09 239.38,-213.25 239.38,-205.59 243.21,-201.75 243.21,-201.75 250.88,-194.09 250.88,-194.09 254.71,-190.25 262.38,-190.25 266.21,-194.09 266.21,-194.09 273.88,-201.75 273.88,-201.75 277.71,-205.59 277.71,-213.25 273.88,-217.09 273.88,-217.09 266.21,-224.75 266.21,-224.75 262.38,-228.59 254.71,-228.59 250.88,-224.75"/>
<text text-anchor="middle" x="258.54" y="-205.72" font-family="Times New Roman,serif" font-size="14.00" fill="#006400">5</text>
<text text-anchor="middle" x="213.04" y="-236.22" font-family="Times New Roman,serif" font-size="14.00" fill="#006400">0.42325</text>
</g>
<!-- frog_salamander_turtle_mammal&#45;&#45;rayfinfish_frog_salamander_turtle_mammal -->
<g id="edge12" class="edge">
<title>frog_salamander_turtle_mammal&#45;&#45;rayfinfish_frog_salamander_turtle_mammal</title>
<path fill="none" stroke="#000000" stroke-dasharray="5,2" d="M192.66,-201.86C202.73,-203.01 215.01,-204.42 226.23,-205.71"/>
<polygon fill="#000000" stroke="#000000" points="225.56,-209.15 235.89,-206.82 226.36,-202.2 225.56,-209.15"/>
</g>
<!-- rayfinfish -->
<g id="node14" class="node">
<title>rayfinfish</title>
<polygon fill="skyblue" stroke="skyblue" points="328.97,-125.43 328.97,-140.1 298.46,-150.48 255.31,-150.48 224.79,-140.1 224.79,-125.43 255.31,-115.06 298.46,-115.06 328.97,-125.43"/>
<text text-anchor="middle" x="276.88" y="-129.07" font-family="Times New Roman,serif" font-size="14.00" fill="#000000">rayfinfish</text>
</g>
<!-- rayfinfish&#45;&#45;rayfinfish_frog_salamander_turtle_mammal -->
<g id="edge11" class="edge">
<title>rayfinfish&#45;&#45;rayfinfish_frog_salamander_turtle_mammal</title>
<path fill="none" stroke="#000000" d="M272.54,-150.93C270.52,-159.37 268.06,-169.62 265.78,-179.18"/>
<polygon fill="#000000" stroke="#000000" points="262.39,-178.3 263.47,-188.84 269.2,-179.93 262.39,-178.3"/>
</g>
<!-- rayfinfish_frog_salamander_turtle_mammal&#45;&#45;lizard_snake_rayfinfish_frog_salamander_turtle_mammal -->
<g id="edge14" class="edge">
<title>rayfinfish_frog_salamander_turtle_mammal&#45;&#45;lizard_snake_rayfinfish_frog_salamander_turtle_mammal</title>
<path fill="none" stroke="#000000" stroke-dasharray="5,2" d="M274.83,-216.42C285.56,-221.03 299.87,-227.18 312.25,-232.5"/>
<polygon fill="#000000" stroke="#000000" points="310.54,-235.58 321.11,-236.31 313.3,-229.15 310.54,-235.58"/>
</g>
<!-- lizard_snake_rayfinfish_frog_salamander_turtle_mammal&#45;&#45;crocodile_bird_lizard_snake_rayfinfish_frog_salamander_turtle_mammal -->
<g id="edge16" class="edge">
<title>lizard_snake_rayfinfish_frog_salamander_turtle_mammal&#45;&#45;crocodile_bird_lizard_snake_rayfinfish_frog_salamander_turtle_mammal</title>
<path fill="none" stroke="#000000" stroke-dasharray="5,2" d="M353.38,-234.87C363.23,-228.59 376.52,-220.11 387.93,-212.83"/>
<polygon fill="#000000" stroke="#000000" points="389.5,-215.98 396.05,-207.65 385.74,-210.08 389.5,-215.98"/>
</g>
</g>
</svg>
