<?xml version="1.0" encoding="UTF-8" standalone="no"?>
<!DOCTYPE svg PUBLIC "-//W3C//DTD SVG 1.1//EN"
 "http://www.w3.org/Graphics/SVG/1.1/DTD/svg11.dtd">
<!-- Generated by graphviz version 7.0.3 (20221126.0506)
 -->
<!-- Title: phylogenetic_tree Pages: 1 -->
<svg width="1079pt" height="823pt"
 viewBox="0.00 0.00 1079.00 823.00" xmlns="http://www.w3.org/2000/svg" xmlns:xlink="http://www.w3.org/1999/xlink">
<g id="graph0" class="graph" transform="scale(1 1) rotate(0) translate(4 819)">
<title>phylogenetic_tree</title>
<polygon fill="white" stroke="none" points="-4,4 -4,-819 1075,-819 1075,4 -4,4"/>
<text text-anchor="middle" x="535.5" y="-7.8" font-family="Times New Roman,serif" font-size="14.00">Phylogenetic Tree from: Q40Projects.csv</text>
<!-- Q62_Q40 -->
<g id="node1" class="node">
<title>Q62_Q40</title>
<polygon fill="#87ceeb" stroke="#87ceeb" points="110.32,-707.21 110.32,-721.88 77.98,-732.25 32.24,-732.25 -0.11,-721.88 -0.11,-707.21 32.24,-696.84 77.98,-696.84 110.32,-707.21"/>
<text text-anchor="start" x="27.11" y="-710.84" font-family="Times New Roman,serif" font-size="14.00" fill="#000000">Q62_Q40</text>
</g>
<!-- Q62_Q40_Q66_Q40 -->
<g id="node3" class="node">
<title>Q62_Q40_Q66_Q40</title>
<g id="a_node3"><a xlink:title="0.017115384">
<polygon fill="#006400" stroke="#006400" points="135.8,-729.8 112.8,-706.8 135.8,-683.8 158.8,-706.8 135.8,-729.8"/>
<text text-anchor="start" x="132.3" y="-703.1" font-family="Times New Roman,serif" font-size="14.00" fill="#006400">0</text>
</a>
</g>
</g>
<!-- Q62_Q40&#45;&#45;Q62_Q40_Q66_Q40 -->
<g id="edge1" class="edge">
<title>Q62_Q40&#45;&#45;Q62_Q40_Q66_Q40</title>
<path fill="none" stroke="#000000" d="M110.71,-709.21C110.86,-709.19 111.01,-709.18 111.16,-709.16"/>
<polygon fill="#000000" stroke="#000000" points="103.12,-713.45 112.74,-709.01 102.45,-706.48 103.12,-713.45"/>
</g>
<!-- Q66_Q40 -->
<g id="node2" class="node">
<title>Q66_Q40</title>
<polygon fill="#87ceeb" stroke="#87ceeb" points="187.76,-780.13 187.76,-794.8 155.42,-805.18 109.68,-805.18 77.34,-794.8 77.34,-780.13 109.68,-769.76 155.42,-769.76 187.76,-780.13"/>
<text text-anchor="start" x="104.55" y="-783.77" font-family="Times New Roman,serif" font-size="14.00" fill="#000000">Q66_Q40</text>
</g>
<!-- Q66_Q40&#45;&#45;Q62_Q40_Q66_Q40 -->
<g id="edge2" class="edge">
<title>Q66_Q40&#45;&#45;Q62_Q40_Q66_Q40</title>
<path fill="none" stroke="#000000" d="M133.27,-769.57C133.61,-761.09 134.03,-750.68 134.43,-740.79"/>
<polygon fill="#000000" stroke="#000000" points="137.92,-741.22 134.82,-731.08 130.92,-740.93 137.92,-741.22"/>
</g>
<!-- Q59_Q40_Q62_Q40_Q66_Q40 -->
<g id="node5" class="node">
<title>Q59_Q40_Q62_Q40_Q66_Q40</title>
<g id="a_node5"><a xlink:title="0.031278934">
<polygon fill="#006400" stroke="#006400" points="204.8,-681.29 181.8,-658.29 204.8,-635.29 227.8,-658.29 204.8,-681.29"/>
<text text-anchor="start" x="201.3" y="-654.59" font-family="Times New Roman,serif" font-size="14.00" fill="#006400">1</text>
</a>
</g>
</g>
<!-- Q62_Q40_Q66_Q40&#45;&#45;Q59_Q40_Q62_Q40_Q66_Q40 -->
<g id="edge4" class="edge">
<title>Q62_Q40_Q66_Q40&#45;&#45;Q59_Q40_Q62_Q40_Q66_Q40</title>
<path fill="none" stroke="#000000" stroke-dasharray="5,2" d="M149.44,-697.22C158.7,-690.7 171.17,-681.93 181.93,-674.37"/>
<polygon fill="#000000" stroke="#000000" points="183.79,-677.34 189.96,-668.72 179.77,-671.61 183.79,-677.34"/>
</g>
<!-- Q59_Q40 -->
<g id="node4" class="node">
<title>Q59_Q40</title>
<polygon fill="#87ceeb" stroke="#87ceeb" points="310.14,-717.47 310.14,-732.14 277.8,-742.51 232.06,-742.51 199.71,-732.14 199.71,-717.47 232.06,-707.1 277.8,-707.1 310.14,-717.47"/>
<text text-anchor="start" x="226.93" y="-721.11" font-family="Times New Roman,serif" font-size="14.00" fill="#000000">Q59_Q40</text>
</g>
<!-- Q59_Q40&#45;&#45;Q59_Q40_Q62_Q40_Q66_Q40 -->
<g id="edge3" class="edge">
<title>Q59_Q40&#45;&#45;Q59_Q40_Q62_Q40_Q66_Q40</title>
<path fill="none" stroke="#000000" d="M241.23,-706.63C235.16,-698.58 227.97,-689.04 221.59,-680.56"/>
<polygon fill="#000000" stroke="#000000" points="224.55,-678.68 215.73,-672.8 218.96,-682.89 224.55,-678.68"/>
</g>
<!-- Q64_Q40_Q59_Q40_Q62_Q40_Q66_Q40 -->
<g id="node10" class="node">
<title>Q64_Q40_Q59_Q40_Q62_Q40_Q66_Q40</title>
<g id="a_node10"><a xlink:title="0.041195977">
<polygon fill="#006400" stroke="#006400" points="223.94,-596.95 200.94,-573.95 223.94,-550.95 246.94,-573.95 223.94,-596.95"/>
<text text-anchor="start" x="220.44" y="-570.25" font-family="Times New Roman,serif" font-size="14.00" fill="#006400">3</text>
</a>
</g>
</g>
<!-- Q59_Q40_Q62_Q40_Q66_Q40&#45;&#45;Q64_Q40_Q59_Q40_Q62_Q40_Q66_Q40 -->
<g id="edge8" class="edge">
<title>Q59_Q40_Q62_Q40_Q66_Q40&#45;&#45;Q64_Q40_Q59_Q40_Q62_Q40_Q66_Q40</title>
<path fill="none" stroke="#000000" stroke-dasharray="5,2" d="M209.14,-639.15C211.49,-628.8 214.45,-615.77 217.1,-604.09"/>
<polygon fill="#000000" stroke="#000000" points="220.48,-605.01 219.28,-594.49 213.65,-603.46 220.48,-605.01"/>
</g>
<!-- Q68_Q40 -->
<g id="node6" class="node">
<title>Q68_Q40</title>
<polygon fill="#87ceeb" stroke="#87ceeb" points="225.82,-87.21 225.82,-101.88 193.48,-112.25 147.74,-112.25 115.4,-101.88 115.4,-87.21 147.74,-76.83 193.48,-76.83 225.82,-87.21"/>
<text text-anchor="start" x="142.61" y="-90.84" font-family="Times New Roman,serif" font-size="14.00" fill="#000000">Q68_Q40</text>
</g>
<!-- Q68_Q40_Q70_Q40 -->
<g id="node8" class="node">
<title>Q68_Q40_Q70_Q40</title>
<g id="a_node8"><a xlink:title="0.039595958">
<polygon fill="#006400" stroke="#006400" points="246.17,-147.42 223.17,-124.42 246.17,-101.42 269.17,-124.42 246.17,-147.42"/>
<text text-anchor="start" x="242.67" y="-120.72" font-family="Times New Roman,serif" font-size="14.00" fill="#006400">2</text>
</a>
</g>
</g>
<!-- Q68_Q40&#45;&#45;Q68_Q40_Q70_Q40 -->
<g id="edge5" class="edge">
<title>Q68_Q40&#45;&#45;Q68_Q40_Q70_Q40</title>
<path fill="none" stroke="#000000" d="M206.18,-108.61C210.49,-110.31 214.84,-112.03 219,-113.68"/>
<polygon fill="#000000" stroke="#000000" points="217.43,-116.82 228.02,-117.25 220.01,-110.31 217.43,-116.82"/>
</g>
<!-- Q70_Q40 -->
<g id="node7" class="node">
<title>Q70_Q40</title>
<polygon fill="#87ceeb" stroke="#87ceeb" points="299.95,-33.27 299.95,-47.94 267.61,-58.31 221.87,-58.31 189.53,-47.94 189.53,-33.27 221.87,-22.9 267.61,-22.9 299.95,-33.27"/>
<text text-anchor="start" x="216.74" y="-36.9" font-family="Times New Roman,serif" font-size="14.00" fill="#000000">Q70_Q40</text>
</g>
<!-- Q70_Q40&#45;&#45;Q68_Q40_Q70_Q40 -->
<g id="edge6" class="edge">
<title>Q70_Q40&#45;&#45;Q68_Q40_Q70_Q40</title>
<path fill="none" stroke="#000000" d="M245.05,-58.79C245.21,-67.91 245.4,-79.27 245.58,-89.96"/>
<polygon fill="#000000" stroke="#000000" points="242.08,-89.71 245.74,-99.65 249.07,-89.59 242.08,-89.71"/>
</g>
<!-- Q72_Q40_Q68_Q40_Q70_Q40 -->
<g id="node25" class="node">
<title>Q72_Q40_Q68_Q40_Q70_Q40</title>
<g id="a_node25"><a xlink:title="0.31994218">
<polygon fill="#006400" stroke="#006400" points="308.23,-212.08 278.23,-189.08 308.23,-166.08 338.23,-189.08 308.23,-212.08"/>
<text text-anchor="start" x="301.23" y="-185.38" font-family="Times New Roman,serif" font-size="14.00" fill="#006400">10</text>
</a>
</g>
</g>
<!-- Q68_Q40_Q70_Q40&#45;&#45;Q72_Q40_Q68_Q40_Q70_Q40 -->
<g id="edge22" class="edge">
<title>Q68_Q40_Q70_Q40&#45;&#45;Q72_Q40_Q68_Q40_Q70_Q40</title>
<path fill="none" stroke="#000000" stroke-dasharray="5,2" d="M257.55,-136.28C265.86,-144.94 277.37,-156.93 287.31,-167.29"/>
<polygon fill="#000000" stroke="#000000" points="284.7,-169.62 294.15,-174.41 289.75,-164.77 284.7,-169.62"/>
</g>
<!-- Q64_Q40 -->
<g id="node9" class="node">
<title>Q64_Q40</title>
<polygon fill="#87ceeb" stroke="#87ceeb" points="201.35,-546.68 201.35,-561.35 169,-571.72 123.26,-571.72 90.92,-561.35 90.92,-546.68 123.26,-536.3 169,-536.3 201.35,-546.68"/>
<text text-anchor="start" x="118.13" y="-550.31" font-family="Times New Roman,serif" font-size="14.00" fill="#000000">Q64_Q40</text>
</g>
<!-- Q64_Q40&#45;&#45;Q64_Q40_Q59_Q40_Q62_Q40_Q66_Q40 -->
<g id="edge7" class="edge">
<title>Q64_Q40&#45;&#45;Q64_Q40_Q59_Q40_Q62_Q40_Q66_Q40</title>
<path fill="none" stroke="#000000" d="M190.04,-565.26C191.55,-565.65 193.06,-566.03 194.54,-566.41"/>
<polygon fill="#000000" stroke="#000000" points="193.34,-569.72 203.9,-568.81 195.08,-562.94 193.34,-569.72"/>
</g>
<!-- Q67_Q40_Q64_Q40_Q59_Q40_Q62_Q40_Q66_Q40 -->
<g id="node15" class="node">
<title>Q67_Q40_Q64_Q40_Q59_Q40_Q62_Q40_Q66_Q40</title>
<g id="a_node15"><a xlink:title="0.06133408">
<polygon fill="#006400" stroke="#006400" points="285.93,-535.04 262.93,-512.04 285.93,-489.04 308.93,-512.04 285.93,-535.04"/>
<text text-anchor="start" x="282.43" y="-508.34" font-family="Times New Roman,serif" font-size="14.00" fill="#006400">5</text>
</a>
</g>
</g>
<!-- Q64_Q40_Q59_Q40_Q62_Q40_Q66_Q40&#45;&#45;Q67_Q40_Q64_Q40_Q59_Q40_Q62_Q40_Q66_Q40 -->
<g id="edge12" class="edge">
<title>Q64_Q40_Q59_Q40_Q62_Q40_Q66_Q40&#45;&#45;Q67_Q40_Q64_Q40_Q59_Q40_Q62_Q40_Q66_Q40</title>
<path fill="none" stroke="#000000" stroke-dasharray="5,2" d="M235.6,-562.3C244.26,-553.66 256.27,-541.66 266.38,-531.56"/>
<polygon fill="#000000" stroke="#000000" points="268.65,-534.24 273.25,-524.7 263.7,-529.29 268.65,-534.24"/>
</g>
<!-- Q75_Q40 -->
<g id="node11" class="node">
<title>Q75_Q40</title>
<polygon fill="#87ceeb" stroke="#87ceeb" points="627.57,-131.35 627.57,-146.02 595.23,-156.39 549.49,-156.39 517.15,-146.02 517.15,-131.35 549.49,-120.98 595.23,-120.98 627.57,-131.35"/>
<text text-anchor="start" x="544.36" y="-134.98" font-family="Times New Roman,serif" font-size="14.00" fill="#000000">Q75_Q40</text>
</g>
<!-- Q75_Q40_Q80_Q40 -->
<g id="node13" class="node">
<title>Q75_Q40_Q80_Q40</title>
<g id="a_node13"><a xlink:title="0.050707694">
<polygon fill="#006400" stroke="#006400" points="493.04,-185.94 470.04,-162.94 493.04,-139.94 516.04,-162.94 493.04,-185.94"/>
<text text-anchor="start" x="489.54" y="-159.24" font-family="Times New Roman,serif" font-size="14.00" fill="#006400">4</text>
</a>
</g>
</g>
<!-- Q75_Q40&#45;&#45;Q75_Q40_Q80_Q40 -->
<g id="edge9" class="edge">
<title>Q75_Q40&#45;&#45;Q75_Q40_Q80_Q40</title>
<path fill="none" stroke="#000000" d="M531.77,-151.1C528.46,-152.11 525.15,-153.12 521.94,-154.1"/>
<polygon fill="#000000" stroke="#000000" points="520.93,-150.75 512.39,-157.02 522.98,-157.45 520.93,-150.75"/>
</g>
<!-- Q80_Q40 -->
<g id="node12" class="node">
<title>Q80_Q40</title>
<polygon fill="#87ceeb" stroke="#87ceeb" points="559.31,-75.01 559.31,-89.68 526.97,-100.06 481.23,-100.06 448.89,-89.68 448.89,-75.01 481.23,-64.64 526.97,-64.64 559.31,-75.01"/>
<text text-anchor="start" x="476.1" y="-78.65" font-family="Times New Roman,serif" font-size="14.00" fill="#000000">Q80_Q40</text>
</g>
<!-- Q80_Q40&#45;&#45;Q75_Q40_Q80_Q40 -->
<g id="edge10" class="edge">
<title>Q80_Q40&#45;&#45;Q75_Q40_Q80_Q40</title>
<path fill="none" stroke="#000000" d="M501.65,-100.24C500.41,-109.27 498.87,-120.5 497.43,-130.95"/>
<polygon fill="#000000" stroke="#000000" points="493.98,-130.38 496.09,-140.76 500.91,-131.33 493.98,-130.38"/>
</g>
<!-- Q75_Q40_Q80_Q40_Q53_Q40_Q54_Q40_Q67_Q40_Q64_Q40_Q59_Q40_Q62_Q40_Q66_Q40_Q56_Q40_Q57_Q40_Q72_Q40_Q68_Q40_Q70_Q40 -->
<g id="node27" class="node">
<title>Q75_Q40_Q80_Q40_Q53_Q40_Q54_Q40_Q67_Q40_Q64_Q40_Q59_Q40_Q62_Q40_Q66_Q40_Q56_Q40_Q57_Q40_Q72_Q40_Q68_Q40_Q70_Q40</title>
<g id="a_node27"><a xlink:title="0.57757354">
<polygon fill="#006400" stroke="#006400" points="446.07,-258.47 416.07,-235.47 446.07,-212.47 476.07,-235.47 446.07,-258.47"/>
<text text-anchor="start" x="439.07" y="-231.77" font-family="Times New Roman,serif" font-size="14.00" fill="#006400">12</text>
</a>
</g>
</g>
<!-- Q75_Q40_Q80_Q40&#45;&#45;Q75_Q40_Q80_Q40_Q53_Q40_Q54_Q40_Q67_Q40_Q64_Q40_Q59_Q40_Q62_Q40_Q66_Q40_Q56_Q40_Q57_Q40_Q72_Q40_Q68_Q40_Q70_Q40 -->
<g id="edge25" class="edge">
<title>Q75_Q40_Q80_Q40&#45;&#45;Q75_Q40_Q80_Q40_Q53_Q40_Q54_Q40_Q67_Q40_Q64_Q40_Q59_Q40_Q62_Q40_Q66_Q40_Q56_Q40_Q57_Q40_Q72_Q40_Q68_Q40_Q70_Q40</title>
<path fill="none" stroke="#000000" stroke-dasharray="5,2" d="M483.76,-177.27C477.66,-186.69 469.51,-199.27 462.35,-210.32"/>
<polygon fill="#000000" stroke="#000000" points="459.47,-208.35 456.97,-218.64 465.34,-212.15 459.47,-208.35"/>
</g>
<!-- Q67_Q40 -->
<g id="node14" class="node">
<title>Q67_Q40</title>
<polygon fill="#87ceeb" stroke="#87ceeb" points="391.88,-564.62 391.88,-579.29 359.53,-589.66 313.79,-589.66 281.45,-579.29 281.45,-564.62 313.79,-554.25 359.53,-554.25 391.88,-564.62"/>
<text text-anchor="start" x="308.66" y="-568.25" font-family="Times New Roman,serif" font-size="14.00" fill="#000000">Q67_Q40</text>
</g>
<!-- Q67_Q40&#45;&#45;Q67_Q40_Q64_Q40_Q59_Q40_Q62_Q40_Q66_Q40 -->
<g id="edge11" class="edge">
<title>Q67_Q40&#45;&#45;Q67_Q40_Q64_Q40_Q59_Q40_Q62_Q40_Q66_Q40</title>
<path fill="none" stroke="#000000" d="M321.44,-553.98C315.98,-547.53 309.77,-540.2 304.09,-533.49"/>
<polygon fill="#000000" stroke="#000000" points="306.9,-531.39 297.76,-526.02 301.56,-535.91 306.9,-531.39"/>
</g>
<!-- Q67_Q40_Q64_Q40_Q59_Q40_Q62_Q40_Q66_Q40_Q56_Q40_Q57_Q40 -->
<g id="node22" class="node">
<title>Q67_Q40_Q64_Q40_Q59_Q40_Q62_Q40_Q66_Q40_Q56_Q40_Q57_Q40</title>
<g id="a_node22"><a xlink:title="0.16338536">
<polygon fill="#006400" stroke="#006400" points="335.69,-460.57 312.69,-437.57 335.69,-414.57 358.69,-437.57 335.69,-460.57"/>
<text text-anchor="start" x="332.19" y="-433.87" font-family="Times New Roman,serif" font-size="14.00" fill="#006400">8</text>
</a>
</g>
</g>
<!-- Q67_Q40_Q64_Q40_Q59_Q40_Q62_Q40_Q66_Q40&#45;&#45;Q67_Q40_Q64_Q40_Q59_Q40_Q62_Q40_Q66_Q40_Q56_Q40_Q57_Q40 -->
<g id="edge17" class="edge">
<title>Q67_Q40_Q64_Q40_Q59_Q40_Q62_Q40_Q66_Q40&#45;&#45;Q67_Q40_Q64_Q40_Q59_Q40_Q62_Q40_Q66_Q40_Q56_Q40_Q57_Q40</title>
<path fill="none" stroke="#000000" stroke-dasharray="5,2" d="M295.29,-498.03C302.19,-487.7 311.76,-473.39 319.85,-461.28"/>
<polygon fill="#000000" stroke="#000000" points="322.72,-463.29 325.36,-453.03 316.9,-459.4 322.72,-463.29"/>
</g>
<!-- Q53_Q40 -->
<g id="node16" class="node">
<title>Q53_Q40</title>
<polygon fill="#87ceeb" stroke="#87ceeb" points="213.36,-344.43 213.36,-359.1 181.01,-369.47 135.27,-369.47 102.93,-359.1 102.93,-344.43 135.27,-334.06 181.01,-334.06 213.36,-344.43"/>
<text text-anchor="start" x="130.14" y="-348.07" font-family="Times New Roman,serif" font-size="14.00" fill="#000000">Q53_Q40</text>
</g>
<!-- Q53_Q40_Q54_Q40 -->
<g id="node18" class="node">
<title>Q53_Q40_Q54_Q40</title>
<g id="a_node18"><a xlink:title="0.066744454">
<polygon fill="#006400" stroke="#006400" points="237.21,-356.58 214.21,-333.58 237.21,-310.58 260.21,-333.58 237.21,-356.58"/>
<text text-anchor="start" x="233.71" y="-329.88" font-family="Times New Roman,serif" font-size="14.00" fill="#006400">6</text>
</a>
</g>
</g>
<!-- Q53_Q40&#45;&#45;Q53_Q40_Q54_Q40 -->
<g id="edge13" class="edge">
<title>Q53_Q40&#45;&#45;Q53_Q40_Q54_Q40</title>
<path fill="none" stroke="#000000" d="M204.14,-341.19C205.21,-340.94 206.27,-340.7 207.33,-340.46"/>
<polygon fill="#000000" stroke="#000000" points="207.66,-343.97 216.62,-338.32 206.09,-337.15 207.66,-343.97"/>
</g>
<!-- Q54_Q40 -->
<g id="node17" class="node">
<title>Q54_Q40</title>
<polygon fill="#87ceeb" stroke="#87ceeb" points="224.23,-279.75 224.23,-294.42 191.89,-304.8 146.15,-304.8 113.81,-294.42 113.81,-279.75 146.15,-269.38 191.89,-269.38 224.23,-279.75"/>
<text text-anchor="start" x="141.02" y="-283.39" font-family="Times New Roman,serif" font-size="14.00" fill="#000000">Q54_Q40</text>
</g>
<!-- Q54_Q40&#45;&#45;Q53_Q40_Q54_Q40 -->
<g id="edge14" class="edge">
<title>Q54_Q40&#45;&#45;Q53_Q40_Q54_Q40</title>
<path fill="none" stroke="#000000" d="M194.41,-304.4C200.87,-308.81 207.78,-313.52 214.12,-317.84"/>
<polygon fill="#000000" stroke="#000000" points="211.99,-320.62 222.22,-323.36 215.93,-314.84 211.99,-320.62"/>
</g>
<!-- Q53_Q40_Q54_Q40_Q67_Q40_Q64_Q40_Q59_Q40_Q62_Q40_Q66_Q40_Q56_Q40_Q57_Q40 -->
<g id="node23" class="node">
<title>Q53_Q40_Q54_Q40_Q67_Q40_Q64_Q40_Q59_Q40_Q62_Q40_Q66_Q40_Q56_Q40_Q57_Q40</title>
<g id="a_node23"><a xlink:title="0.24609782">
<polygon fill="#006400" stroke="#006400" points="320.75,-370.12 297.75,-347.12 320.75,-324.12 343.75,-347.12 320.75,-370.12"/>
<text text-anchor="start" x="317.25" y="-343.42" font-family="Times New Roman,serif" font-size="14.00" fill="#006400">9</text>
</a>
</g>
</g>
<!-- Q53_Q40_Q54_Q40&#45;&#45;Q53_Q40_Q54_Q40_Q67_Q40_Q64_Q40_Q59_Q40_Q62_Q40_Q66_Q40_Q56_Q40_Q57_Q40 -->
<g id="edge19" class="edge">
<title>Q53_Q40_Q54_Q40&#45;&#45;Q53_Q40_Q54_Q40_Q67_Q40_Q64_Q40_Q59_Q40_Q62_Q40_Q66_Q40_Q56_Q40_Q57_Q40</title>
<path fill="none" stroke="#000000" stroke-dasharray="5,2" d="M257.44,-336.86C267.01,-338.41 278.66,-340.3 289.35,-342.03"/>
<polygon fill="#000000" stroke="#000000" points="288.5,-345.44 298.93,-343.59 289.62,-338.53 288.5,-345.44"/>
</g>
<!-- Q56_Q40 -->
<g id="node19" class="node">
<title>Q56_Q40</title>
<polygon fill="#87ceeb" stroke="#87ceeb" points="518.59,-535.65 518.59,-550.32 486.25,-560.69 440.51,-560.69 408.17,-550.32 408.17,-535.65 440.51,-525.28 486.25,-525.28 518.59,-535.65"/>
<text text-anchor="start" x="435.38" y="-539.29" font-family="Times New Roman,serif" font-size="14.00" fill="#000000">Q56_Q40</text>
</g>
<!-- Q56_Q40_Q57_Q40 -->
<g id="node21" class="node">
<title>Q56_Q40_Q57_Q40</title>
<g id="a_node21"><a xlink:title="0.1539389">
<polygon fill="#006400" stroke="#006400" points="415.69,-496.79 392.69,-473.79 415.69,-450.79 438.69,-473.79 415.69,-496.79"/>
<text text-anchor="start" x="412.19" y="-470.09" font-family="Times New Roman,serif" font-size="14.00" fill="#006400">7</text>
</a>
</g>
</g>
<!-- Q56_Q40&#45;&#45;Q56_Q40_Q57_Q40 -->
<g id="edge15" class="edge">
<title>Q56_Q40&#45;&#45;Q56_Q40_Q57_Q40</title>
<path fill="none" stroke="#000000" d="M450.85,-524.8C444.94,-516.22 437.81,-505.87 431.52,-496.75"/>
<polygon fill="#000000" stroke="#000000" points="434.54,-494.97 425.99,-488.72 428.78,-498.94 434.54,-494.97"/>
</g>
<!-- Q57_Q40 -->
<g id="node20" class="node">
<title>Q57_Q40</title>
<polygon fill="#87ceeb" stroke="#87ceeb" points="551.86,-474.61 551.86,-489.28 519.52,-499.65 473.78,-499.65 441.43,-489.28 441.43,-474.61 473.78,-464.24 519.52,-464.24 551.86,-474.61"/>
<text text-anchor="start" x="468.65" y="-478.25" font-family="Times New Roman,serif" font-size="14.00" fill="#000000">Q57_Q40</text>
</g>
<!-- Q57_Q40&#45;&#45;Q56_Q40_Q57_Q40 -->
<g id="edge16" class="edge">
<title>Q57_Q40&#45;&#45;Q56_Q40_Q57_Q40</title>
<path fill="none" stroke="#000000" d="M441.31,-476.37C441.22,-476.36 441.13,-476.35 441.04,-476.34"/>
<polygon fill="#000000" stroke="#000000" points="448.88,-473.61 438.58,-476.09 448.17,-480.58 448.88,-473.61"/>
</g>
<!-- Q56_Q40_Q57_Q40&#45;&#45;Q67_Q40_Q64_Q40_Q59_Q40_Q62_Q40_Q66_Q40_Q56_Q40_Q57_Q40 -->
<g id="edge18" class="edge">
<title>Q56_Q40_Q57_Q40&#45;&#45;Q67_Q40_Q64_Q40_Q59_Q40_Q62_Q40_Q66_Q40_Q56_Q40_Q57_Q40</title>
<path fill="none" stroke="#000000" stroke-dasharray="5,2" d="M399.5,-466.46C388.77,-461.6 374.44,-455.11 362.07,-449.52"/>
<polygon fill="#000000" stroke="#000000" points="363.79,-446.45 353.24,-445.52 360.9,-452.83 363.79,-446.45"/>
</g>
<!-- Q67_Q40_Q64_Q40_Q59_Q40_Q62_Q40_Q66_Q40_Q56_Q40_Q57_Q40&#45;&#45;Q53_Q40_Q54_Q40_Q67_Q40_Q64_Q40_Q59_Q40_Q62_Q40_Q66_Q40_Q56_Q40_Q57_Q40 -->
<g id="edge20" class="edge">
<title>Q67_Q40_Q64_Q40_Q59_Q40_Q62_Q40_Q66_Q40_Q56_Q40_Q57_Q40&#45;&#45;Q53_Q40_Q54_Q40_Q67_Q40_Q64_Q40_Q59_Q40_Q62_Q40_Q66_Q40_Q56_Q40_Q57_Q40</title>
<path fill="none" stroke="#000000" stroke-dasharray="5,2" d="M332.38,-417.5C330.49,-406.1 328.09,-391.58 325.96,-378.7"/>
<polygon fill="#000000" stroke="#000000" points="329.44,-378.24 324.35,-368.95 322.53,-379.38 329.44,-378.24"/>
</g>
<!-- Q53_Q40_Q54_Q40_Q67_Q40_Q64_Q40_Q59_Q40_Q62_Q40_Q66_Q40_Q56_Q40_Q57_Q40_Q72_Q40_Q68_Q40_Q70_Q40 -->
<g id="node26" class="node">
<title>Q53_Q40_Q54_Q40_Q67_Q40_Q64_Q40_Q59_Q40_Q62_Q40_Q66_Q40_Q56_Q40_Q57_Q40_Q72_Q40_Q68_Q40_Q70_Q40</title>
<g id="a_node26"><a xlink:title="0.42249283">
<polygon fill="#006400" stroke="#006400" points="359.98,-286.61 329.98,-263.61 359.98,-240.61 389.98,-263.61 359.98,-286.61"/>
<text text-anchor="start" x="352.98" y="-259.91" font-family="Times New Roman,serif" font-size="14.00" fill="#006400">11</text>
</a>
</g>
</g>
<!-- Q53_Q40_Q54_Q40_Q67_Q40_Q64_Q40_Q59_Q40_Q62_Q40_Q66_Q40_Q56_Q40_Q57_Q40&#45;&#45;Q53_Q40_Q54_Q40_Q67_Q40_Q64_Q40_Q59_Q40_Q62_Q40_Q66_Q40_Q56_Q40_Q57_Q40_Q72_Q40_Q68_Q40_Q70_Q40 -->
<g id="edge23" class="edge">
<title>Q53_Q40_Q54_Q40_Q67_Q40_Q64_Q40_Q59_Q40_Q62_Q40_Q66_Q40_Q56_Q40_Q57_Q40&#45;&#45;Q53_Q40_Q54_Q40_Q67_Q40_Q64_Q40_Q59_Q40_Q62_Q40_Q66_Q40_Q56_Q40_Q57_Q40_Q72_Q40_Q68_Q40_Q70_Q40</title>
<path fill="none" stroke="#000000" stroke-dasharray="5,2" d="M328.31,-331.02C333.65,-319.65 340.94,-304.14 347.18,-290.86"/>
<polygon fill="#000000" stroke="#000000" points="350.17,-292.72 351.26,-282.18 343.84,-289.75 350.17,-292.72"/>
</g>
<!-- Q72_Q40 -->
<g id="node24" class="node">
<title>Q72_Q40</title>
<polygon fill="#87ceeb" stroke="#87ceeb" points="394.28,-113.53 394.28,-128.2 361.94,-138.57 316.2,-138.57 283.85,-128.2 283.85,-113.53 316.2,-103.16 361.94,-103.16 394.28,-113.53"/>
<text text-anchor="start" x="311.07" y="-117.16" font-family="Times New Roman,serif" font-size="14.00" fill="#000000">Q72_Q40</text>
</g>
<!-- Q72_Q40&#45;&#45;Q72_Q40_Q68_Q40_Q70_Q40 -->
<g id="edge21" class="edge">
<title>Q72_Q40&#45;&#45;Q72_Q40_Q68_Q40_Q70_Q40</title>
<path fill="none" stroke="#000000" d="M330.96,-138.79C327.81,-145.76 324.13,-153.91 320.65,-161.6"/>
<polygon fill="#000000" stroke="#000000" points="317.51,-160.05 316.58,-170.6 323.89,-162.93 317.51,-160.05"/>
</g>
<!-- Q72_Q40_Q68_Q40_Q70_Q40&#45;&#45;Q53_Q40_Q54_Q40_Q67_Q40_Q64_Q40_Q59_Q40_Q62_Q40_Q66_Q40_Q56_Q40_Q57_Q40_Q72_Q40_Q68_Q40_Q70_Q40 -->
<g id="edge24" class="edge">
<title>Q72_Q40_Q68_Q40_Q70_Q40&#45;&#45;Q53_Q40_Q54_Q40_Q67_Q40_Q64_Q40_Q59_Q40_Q62_Q40_Q66_Q40_Q56_Q40_Q57_Q40_Q72_Q40_Q68_Q40_Q70_Q40</title>
<path fill="none" stroke="#000000" stroke-dasharray="5,2" d="M318.7,-204.16C325.67,-214.19 334.98,-227.61 343,-239.15"/>
<polygon fill="#000000" stroke="#000000" points="339.91,-240.83 348.48,-247.05 345.66,-236.84 339.91,-240.83"/>
</g>
<!-- Q53_Q40_Q54_Q40_Q67_Q40_Q64_Q40_Q59_Q40_Q62_Q40_Q66_Q40_Q56_Q40_Q57_Q40_Q72_Q40_Q68_Q40_Q70_Q40&#45;&#45;Q75_Q40_Q80_Q40_Q53_Q40_Q54_Q40_Q67_Q40_Q64_Q40_Q59_Q40_Q62_Q40_Q66_Q40_Q56_Q40_Q57_Q40_Q72_Q40_Q68_Q40_Q70_Q40 -->
<g id="edge26" class="edge">
<title>Q53_Q40_Q54_Q40_Q67_Q40_Q64_Q40_Q59_Q40_Q62_Q40_Q66_Q40_Q56_Q40_Q57_Q40_Q72_Q40_Q68_Q40_Q70_Q40&#45;&#45;Q75_Q40_Q80_Q40_Q53_Q40_Q54_Q40_Q67_Q40_Q64_Q40_Q59_Q40_Q62_Q40_Q66_Q40_Q56_Q40_Q57_Q40_Q72_Q40_Q68_Q40_Q70_Q40</title>
<path fill="none" stroke="#000000" stroke-dasharray="5,2" d="M381.26,-256.65C391.09,-253.44 402.98,-249.56 413.87,-245.99"/>
<polygon fill="#000000" stroke="#000000" points="414.88,-249.35 423.3,-242.91 412.7,-242.69 414.88,-249.35"/>
</g>
<!-- Q46_Q40_Q75_Q40_Q80_Q40_Q53_Q40_Q54_Q40_Q67_Q40_Q64_Q40_Q59_Q40_Q62_Q40_Q66_Q40_Q56_Q40_Q57_Q40_Q72_Q40_Q68_Q40_Q70_Q40 -->
<g id="node29" class="node">
<title>Q46_Q40_Q75_Q40_Q80_Q40_Q53_Q40_Q54_Q40_Q67_Q40_Q64_Q40_Q59_Q40_Q62_Q40_Q66_Q40_Q56_Q40_Q57_Q40_Q72_Q40_Q68_Q40_Q70_Q40</title>
<g id="a_node29"><a xlink:title="0.6922009">
<polygon fill="#8b0000" stroke="#8b0000" points="524.18,-287.51 494.18,-264.51 524.18,-241.51 554.18,-264.51 524.18,-287.51"/>
<text text-anchor="start" x="517.18" y="-260.81" font-family="Times New Roman,serif" font-size="14.00" fill="#8b0000">13</text>
</a>
</g>
</g>
<!-- Q75_Q40_Q80_Q40_Q53_Q40_Q54_Q40_Q67_Q40_Q64_Q40_Q59_Q40_Q62_Q40_Q66_Q40_Q56_Q40_Q57_Q40_Q72_Q40_Q68_Q40_Q70_Q40&#45;&#45;Q46_Q40_Q75_Q40_Q80_Q40_Q53_Q40_Q54_Q40_Q67_Q40_Q64_Q40_Q59_Q40_Q62_Q40_Q66_Q40_Q56_Q40_Q57_Q40_Q72_Q40_Q68_Q40_Q70_Q40 -->
<g id="edge28" class="edge">
<title>Q75_Q40_Q80_Q40_Q53_Q40_Q54_Q40_Q67_Q40_Q64_Q40_Q59_Q40_Q62_Q40_Q66_Q40_Q56_Q40_Q57_Q40_Q72_Q40_Q68_Q40_Q70_Q40&#45;&#45;Q46_Q40_Q75_Q40_Q80_Q40_Q53_Q40_Q54_Q40_Q67_Q40_Q64_Q40_Q59_Q40_Q62_Q40_Q66_Q40_Q56_Q40_Q57_Q40_Q72_Q40_Q68_Q40_Q70_Q40</title>
<path fill="none" stroke="#000000" stroke-dasharray="5,2" d="M466.59,-243.1C474.6,-246.08 483.96,-249.56 492.78,-252.84"/>
<polygon fill="#000000" stroke="#000000" points="491.51,-256.1 502.1,-256.3 493.95,-249.54 491.51,-256.1"/>
</g>
<!-- Q46_Q40 -->
<g id="node28" class="node">
<title>Q46_Q40</title>
<polygon fill="#87ceeb" stroke="#87ceeb" points="661.69,-262.4 661.69,-277.07 629.35,-287.44 583.61,-287.44 551.27,-277.07 551.27,-262.4 583.61,-252.02 629.35,-252.02 661.69,-262.4"/>
<text text-anchor="start" x="578.48" y="-266.03" font-family="Times New Roman,serif" font-size="14.00" fill="#000000">Q46_Q40</text>
</g>
<!-- Q46_Q40&#45;&#45;Q46_Q40_Q75_Q40_Q80_Q40_Q53_Q40_Q54_Q40_Q67_Q40_Q64_Q40_Q59_Q40_Q62_Q40_Q66_Q40_Q56_Q40_Q57_Q40_Q72_Q40_Q68_Q40_Q70_Q40 -->
<g id="edge27" class="edge">
<title>Q46_Q40&#45;&#45;Q46_Q40_Q75_Q40_Q80_Q40_Q53_Q40_Q54_Q40_Q67_Q40_Q64_Q40_Q59_Q40_Q62_Q40_Q66_Q40_Q56_Q40_Q57_Q40_Q72_Q40_Q68_Q40_Q70_Q40</title>
<path fill="none" stroke="#000000" d="M551.13,-266.22C551.07,-266.21 551.01,-266.21 550.95,-266.21"/>
<polygon fill="#000000" stroke="#000000" points="562.49,-263.44 552.29,-266.29 562.04,-270.42 562.49,-263.44"/>
</g>
<!-- legend -->
<g id="node30" class="node">
<title>legend</title>
<polygon fill="none" stroke="black" points="774.5,-754 774.5,-779 855.5,-779 855.5,-754 774.5,-754"/>
<text text-anchor="start" x="792" y="-763.8" font-family="Times New Roman,serif" font-weight="bold" font-size="14.00">Legend</text>
<polygon fill="none" stroke="black" points="774.5,-729 774.5,-754 821.5,-754 821.5,-729 774.5,-729"/>
<text text-anchor="start" x="779.5" y="-737.8" font-family="Times New Roman,serif" font-size="14.00">Nodes</text>
<polygon fill="#87ceeb" stroke="none" points="821.5,-729 821.5,-754 855.5,-754 855.5,-729 821.5,-729"/>
<polygon fill="none" stroke="black" points="821.5,-729 821.5,-754 855.5,-754 855.5,-729 821.5,-729"/>
<text text-anchor="start" x="826.5" y="-737.8" font-family="Times New Roman,serif" font-size="14.00" fill="#87ceeb">Foo</text>
<polygon fill="none" stroke="black" points="774.5,-704 774.5,-729 821.5,-729 821.5,-704 774.5,-704"/>
<text text-anchor="start" x="782.5" y="-712.8" font-family="Times New Roman,serif" font-size="14.00">Links</text>
<polygon fill="#006400" stroke="none" points="821.5,-704 821.5,-729 855.5,-729 855.5,-704 821.5,-704"/>
<polygon fill="none" stroke="black" points="821.5,-704 821.5,-729 855.5,-729 855.5,-704 821.5,-704"/>
<text text-anchor="start" x="826.5" y="-712.8" font-family="Times New Roman,serif" font-size="14.00" fill="#006400">Foo</text>
<polygon fill="none" stroke="black" points="774.5,-679 774.5,-704 821.5,-704 821.5,-679 774.5,-679"/>
<text text-anchor="start" x="784" y="-687.8" font-family="Times New Roman,serif" font-size="14.00">Final</text>
<polygon fill="#8b0000" stroke="none" points="821.5,-679 821.5,-704 855.5,-704 855.5,-679 821.5,-679"/>
<polygon fill="none" stroke="black" points="821.5,-679 821.5,-704 855.5,-704 855.5,-679 821.5,-679"/>
<text text-anchor="start" x="826.5" y="-687.8" font-family="Times New Roman,serif" font-size="14.00" fill="#8b0000">Foo</text>
</g>
</g>
</svg>
