<?xml version="1.0" encoding="UTF-8" standalone="no"?>
<!DOCTYPE svg PUBLIC "-//W3C//DTD SVG 1.1//EN"
 "http://www.w3.org/Graphics/SVG/1.1/DTD/svg11.dtd">
<!-- Generated by graphviz version 7.0.3 (20221126.0506)
 -->
<!-- Title: phylogenetic_tree Pages: 1 -->
<svg width="272pt" height="131pt"
 viewBox="0.00 0.00 272.00 131.00" xmlns="http://www.w3.org/2000/svg" xmlns:xlink="http://www.w3.org/1999/xlink">
<g id="graph0" class="graph" transform="scale(1 1) rotate(0) translate(4 127)">
<title>phylogenetic_tree</title>
<polygon fill="white" stroke="none" points="-4,4 -4,-127 268,-127 268,4 -4,4"/>
<text text-anchor="middle" x="132" y="-7.8" font-family="Times New Roman,serif" font-size="14.00">Phylogenetic Tree from: OwnershipData.csv</text>
<!-- legend -->
<g id="node1" class="node">
<title>legend</title>
<polygon fill="none" stroke="black" points="92,-98 92,-123 173,-123 173,-98 92,-98"/>
<text text-anchor="start" x="109.5" y="-107.8" font-family="Times New Roman,serif" font-weight="bold" font-size="14.00">Legend</text>
<polygon fill="none" stroke="black" points="92,-73 92,-98 139,-98 139,-73 92,-73"/>
<text text-anchor="start" x="97" y="-81.8" font-family="Times New Roman,serif" font-size="14.00">Nodes</text>
<polygon fill="#87ceeb" stroke="none" points="139,-73 139,-98 173,-98 173,-73 139,-73"/>
<polygon fill="none" stroke="black" points="139,-73 139,-98 173,-98 173,-73 139,-73"/>
<text text-anchor="start" x="144" y="-81.8" font-family="Times New Roman,serif" font-size="14.00" fill="#87ceeb">Foo</text>
<polygon fill="none" stroke="black" points="92,-48 92,-73 139,-73 139,-48 92,-48"/>
<text text-anchor="start" x="100" y="-56.8" font-family="Times New Roman,serif" font-size="14.00">Links</text>
<polygon fill="#006400" stroke="none" points="139,-48 139,-73 173,-73 173,-48 139,-48"/>
<polygon fill="none" stroke="black" points="139,-48 139,-73 173,-73 173,-48 139,-48"/>
<text text-anchor="start" x="144" y="-56.8" font-family="Times New Roman,serif" font-size="14.00" fill="#006400">Foo</text>
<polygon fill="none" stroke="black" points="92,-23 92,-48 139,-48 139,-23 92,-23"/>
<text text-anchor="start" x="101.5" y="-31.8" font-family="Times New Roman,serif" font-size="14.00">Final</text>
<polygon fill="#8b0000" stroke="none" points="139,-23 139,-48 173,-48 173,-23 139,-23"/>
<polygon fill="none" stroke="black" points="139,-23 139,-48 173,-48 173,-23 139,-23"/>
<text text-anchor="start" x="144" y="-31.8" font-family="Times New Roman,serif" font-size="14.00" fill="#8b0000">Foo</text>
</g>
</g>
</svg>
